<?xml version="1.0" encoding="utf-8" standalone="no"?>
<!DOCTYPE svg PUBLIC "-//W3C//DTD SVG 1.1//EN"
  "http://www.w3.org/Graphics/SVG/1.1/DTD/svg11.dtd">
<svg xmlns:xlink="http://www.w3.org/1999/xlink" width="424.470937pt" height="281.84625pt" viewBox="0 0 424.470937 281.84625" xmlns="http://www.w3.org/2000/svg" version="1.1">
 <metadata>
  <rdf:RDF xmlns:dc="http://purl.org/dc/elements/1.1/" xmlns:cc="http://creativecommons.org/ns#" xmlns:rdf="http://www.w3.org/1999/02/22-rdf-syntax-ns#">
   <cc:Work>
    <dc:type rdf:resource="http://purl.org/dc/dcmitype/StillImage"/>
    <dc:date>2025-05-12T23:59:59.955990</dc:date>
    <dc:format>image/svg+xml</dc:format>
    <dc:creator>
     <cc:Agent>
      <dc:title>Matplotlib v3.10.0, https://matplotlib.org/</dc:title>
     </cc:Agent>
    </dc:creator>
   </cc:Work>
  </rdf:RDF>
 </metadata>
 <defs>
  <style type="text/css">*{stroke-linejoin: round; stroke-linecap: butt}</style>
 </defs>
 <g id="figure_1">
  <g id="patch_1">
   <path d="M -0 281.84625 
L 424.470937 281.84625 
L 424.470937 0 
L -0 0 
z
" style="fill: #ffffff"/>
  </g>
  <g id="axes_1">
   <g id="patch_2">
    <path d="M 52.160938 244.29 
L 417.270938 244.29 
L 417.270938 43.274 
L 52.160938 43.274 
z
" style="fill: #ffffff"/>
   </g>
   <g id="matplotlib.axis_1">
    <g id="xtick_1">
     <g id="line2d_1">
      <path d="M 68.756847 244.29 
L 68.756847 43.274 
" clip-path="url(#pad363cec9b)" style="fill: none; stroke: #b0b0b0; stroke-width: 0.8; stroke-linecap: square"/>
     </g>
     <g id="line2d_2">
      <defs>
       <path id="mddd759b06a" d="M 0 0 
L 0 3.5 
" style="stroke: #000000; stroke-width: 0.8"/>
      </defs>
      <g>
       <use xlink:href="#mddd759b06a" x="68.756847" y="244.29" style="stroke: #000000; stroke-width: 0.8"/>
      </g>
     </g>
     <g id="text_1">
      <!-- 0 -->
      <g transform="translate(65.575597 258.888438) scale(0.1 -0.1)">
       <defs>
        <path id="DejaVuSans-30" d="M 2034 4250 
Q 1547 4250 1301 3770 
Q 1056 3291 1056 2328 
Q 1056 1369 1301 889 
Q 1547 409 2034 409 
Q 2525 409 2770 889 
Q 3016 1369 3016 2328 
Q 3016 3291 2770 3770 
Q 2525 4250 2034 4250 
z
M 2034 4750 
Q 2819 4750 3233 4129 
Q 3647 3509 3647 2328 
Q 3647 1150 3233 529 
Q 2819 -91 2034 -91 
Q 1250 -91 836 529 
Q 422 1150 422 2328 
Q 422 3509 836 4129 
Q 1250 4750 2034 4750 
z
" transform="scale(0.015625)"/>
       </defs>
       <use xlink:href="#DejaVuSans-30"/>
      </g>
     </g>
    </g>
    <g id="xtick_2">
     <g id="line2d_3">
      <path d="M 135.273516 244.29 
L 135.273516 43.274 
" clip-path="url(#pad363cec9b)" style="fill: none; stroke: #b0b0b0; stroke-width: 0.8; stroke-linecap: square"/>
     </g>
     <g id="line2d_4">
      <g>
       <use xlink:href="#mddd759b06a" x="135.273516" y="244.29" style="stroke: #000000; stroke-width: 0.8"/>
      </g>
     </g>
     <g id="text_2">
      <!-- 100 -->
      <g transform="translate(125.729766 258.888438) scale(0.1 -0.1)">
       <defs>
        <path id="DejaVuSans-31" d="M 794 531 
L 1825 531 
L 1825 4091 
L 703 3866 
L 703 4441 
L 1819 4666 
L 2450 4666 
L 2450 531 
L 3481 531 
L 3481 0 
L 794 0 
L 794 531 
z
" transform="scale(0.015625)"/>
       </defs>
       <use xlink:href="#DejaVuSans-31"/>
       <use xlink:href="#DejaVuSans-30" transform="translate(63.623047 0)"/>
       <use xlink:href="#DejaVuSans-30" transform="translate(127.246094 0)"/>
      </g>
     </g>
    </g>
    <g id="xtick_3">
     <g id="line2d_5">
      <path d="M 201.790186 244.29 
L 201.790186 43.274 
" clip-path="url(#pad363cec9b)" style="fill: none; stroke: #b0b0b0; stroke-width: 0.8; stroke-linecap: square"/>
     </g>
     <g id="line2d_6">
      <g>
       <use xlink:href="#mddd759b06a" x="201.790186" y="244.29" style="stroke: #000000; stroke-width: 0.8"/>
      </g>
     </g>
     <g id="text_3">
      <!-- 200 -->
      <g transform="translate(192.246436 258.888438) scale(0.1 -0.1)">
       <defs>
        <path id="DejaVuSans-32" d="M 1228 531 
L 3431 531 
L 3431 0 
L 469 0 
L 469 531 
Q 828 903 1448 1529 
Q 2069 2156 2228 2338 
Q 2531 2678 2651 2914 
Q 2772 3150 2772 3378 
Q 2772 3750 2511 3984 
Q 2250 4219 1831 4219 
Q 1534 4219 1204 4116 
Q 875 4013 500 3803 
L 500 4441 
Q 881 4594 1212 4672 
Q 1544 4750 1819 4750 
Q 2544 4750 2975 4387 
Q 3406 4025 3406 3419 
Q 3406 3131 3298 2873 
Q 3191 2616 2906 2266 
Q 2828 2175 2409 1742 
Q 1991 1309 1228 531 
z
" transform="scale(0.015625)"/>
       </defs>
       <use xlink:href="#DejaVuSans-32"/>
       <use xlink:href="#DejaVuSans-30" transform="translate(63.623047 0)"/>
       <use xlink:href="#DejaVuSans-30" transform="translate(127.246094 0)"/>
      </g>
     </g>
    </g>
    <g id="xtick_4">
     <g id="line2d_7">
      <path d="M 268.306856 244.29 
L 268.306856 43.274 
" clip-path="url(#pad363cec9b)" style="fill: none; stroke: #b0b0b0; stroke-width: 0.8; stroke-linecap: square"/>
     </g>
     <g id="line2d_8">
      <g>
       <use xlink:href="#mddd759b06a" x="268.306856" y="244.29" style="stroke: #000000; stroke-width: 0.8"/>
      </g>
     </g>
     <g id="text_4">
      <!-- 300 -->
      <g transform="translate(258.763106 258.888438) scale(0.1 -0.1)">
       <defs>
        <path id="DejaVuSans-33" d="M 2597 2516 
Q 3050 2419 3304 2112 
Q 3559 1806 3559 1356 
Q 3559 666 3084 287 
Q 2609 -91 1734 -91 
Q 1441 -91 1130 -33 
Q 819 25 488 141 
L 488 750 
Q 750 597 1062 519 
Q 1375 441 1716 441 
Q 2309 441 2620 675 
Q 2931 909 2931 1356 
Q 2931 1769 2642 2001 
Q 2353 2234 1838 2234 
L 1294 2234 
L 1294 2753 
L 1863 2753 
Q 2328 2753 2575 2939 
Q 2822 3125 2822 3475 
Q 2822 3834 2567 4026 
Q 2313 4219 1838 4219 
Q 1578 4219 1281 4162 
Q 984 4106 628 3988 
L 628 4550 
Q 988 4650 1302 4700 
Q 1616 4750 1894 4750 
Q 2613 4750 3031 4423 
Q 3450 4097 3450 3541 
Q 3450 3153 3228 2886 
Q 3006 2619 2597 2516 
z
" transform="scale(0.015625)"/>
       </defs>
       <use xlink:href="#DejaVuSans-33"/>
       <use xlink:href="#DejaVuSans-30" transform="translate(63.623047 0)"/>
       <use xlink:href="#DejaVuSans-30" transform="translate(127.246094 0)"/>
      </g>
     </g>
    </g>
    <g id="xtick_5">
     <g id="line2d_9">
      <path d="M 334.823525 244.29 
L 334.823525 43.274 
" clip-path="url(#pad363cec9b)" style="fill: none; stroke: #b0b0b0; stroke-width: 0.8; stroke-linecap: square"/>
     </g>
     <g id="line2d_10">
      <g>
       <use xlink:href="#mddd759b06a" x="334.823525" y="244.29" style="stroke: #000000; stroke-width: 0.8"/>
      </g>
     </g>
     <g id="text_5">
      <!-- 400 -->
      <g transform="translate(325.279775 258.888438) scale(0.1 -0.1)">
       <defs>
        <path id="DejaVuSans-34" d="M 2419 4116 
L 825 1625 
L 2419 1625 
L 2419 4116 
z
M 2253 4666 
L 3047 4666 
L 3047 1625 
L 3713 1625 
L 3713 1100 
L 3047 1100 
L 3047 0 
L 2419 0 
L 2419 1100 
L 313 1100 
L 313 1709 
L 2253 4666 
z
" transform="scale(0.015625)"/>
       </defs>
       <use xlink:href="#DejaVuSans-34"/>
       <use xlink:href="#DejaVuSans-30" transform="translate(63.623047 0)"/>
       <use xlink:href="#DejaVuSans-30" transform="translate(127.246094 0)"/>
      </g>
     </g>
    </g>
    <g id="xtick_6">
     <g id="line2d_11">
      <path d="M 401.340195 244.29 
L 401.340195 43.274 
" clip-path="url(#pad363cec9b)" style="fill: none; stroke: #b0b0b0; stroke-width: 0.8; stroke-linecap: square"/>
     </g>
     <g id="line2d_12">
      <g>
       <use xlink:href="#mddd759b06a" x="401.340195" y="244.29" style="stroke: #000000; stroke-width: 0.8"/>
      </g>
     </g>
     <g id="text_6">
      <!-- 500 -->
      <g transform="translate(391.796445 258.888438) scale(0.1 -0.1)">
       <defs>
        <path id="DejaVuSans-35" d="M 691 4666 
L 3169 4666 
L 3169 4134 
L 1269 4134 
L 1269 2991 
Q 1406 3038 1543 3061 
Q 1681 3084 1819 3084 
Q 2600 3084 3056 2656 
Q 3513 2228 3513 1497 
Q 3513 744 3044 326 
Q 2575 -91 1722 -91 
Q 1428 -91 1123 -41 
Q 819 9 494 109 
L 494 744 
Q 775 591 1075 516 
Q 1375 441 1709 441 
Q 2250 441 2565 725 
Q 2881 1009 2881 1497 
Q 2881 1984 2565 2268 
Q 2250 2553 1709 2553 
Q 1456 2553 1204 2497 
Q 953 2441 691 2322 
L 691 4666 
z
" transform="scale(0.015625)"/>
       </defs>
       <use xlink:href="#DejaVuSans-35"/>
       <use xlink:href="#DejaVuSans-30" transform="translate(63.623047 0)"/>
       <use xlink:href="#DejaVuSans-30" transform="translate(127.246094 0)"/>
      </g>
     </g>
    </g>
    <g id="text_7">
     <!-- Samples -->
     <g transform="translate(213.362813 272.566562) scale(0.1 -0.1)">
      <defs>
       <path id="DejaVuSans-53" d="M 3425 4513 
L 3425 3897 
Q 3066 4069 2747 4153 
Q 2428 4238 2131 4238 
Q 1616 4238 1336 4038 
Q 1056 3838 1056 3469 
Q 1056 3159 1242 3001 
Q 1428 2844 1947 2747 
L 2328 2669 
Q 3034 2534 3370 2195 
Q 3706 1856 3706 1288 
Q 3706 609 3251 259 
Q 2797 -91 1919 -91 
Q 1588 -91 1214 -16 
Q 841 59 441 206 
L 441 856 
Q 825 641 1194 531 
Q 1563 422 1919 422 
Q 2459 422 2753 634 
Q 3047 847 3047 1241 
Q 3047 1584 2836 1778 
Q 2625 1972 2144 2069 
L 1759 2144 
Q 1053 2284 737 2584 
Q 422 2884 422 3419 
Q 422 4038 858 4394 
Q 1294 4750 2059 4750 
Q 2388 4750 2728 4690 
Q 3069 4631 3425 4513 
z
" transform="scale(0.015625)"/>
       <path id="DejaVuSans-61" d="M 2194 1759 
Q 1497 1759 1228 1600 
Q 959 1441 959 1056 
Q 959 750 1161 570 
Q 1363 391 1709 391 
Q 2188 391 2477 730 
Q 2766 1069 2766 1631 
L 2766 1759 
L 2194 1759 
z
M 3341 1997 
L 3341 0 
L 2766 0 
L 2766 531 
Q 2569 213 2275 61 
Q 1981 -91 1556 -91 
Q 1019 -91 701 211 
Q 384 513 384 1019 
Q 384 1609 779 1909 
Q 1175 2209 1959 2209 
L 2766 2209 
L 2766 2266 
Q 2766 2663 2505 2880 
Q 2244 3097 1772 3097 
Q 1472 3097 1187 3025 
Q 903 2953 641 2809 
L 641 3341 
Q 956 3463 1253 3523 
Q 1550 3584 1831 3584 
Q 2591 3584 2966 3190 
Q 3341 2797 3341 1997 
z
" transform="scale(0.015625)"/>
       <path id="DejaVuSans-6d" d="M 3328 2828 
Q 3544 3216 3844 3400 
Q 4144 3584 4550 3584 
Q 5097 3584 5394 3201 
Q 5691 2819 5691 2113 
L 5691 0 
L 5113 0 
L 5113 2094 
Q 5113 2597 4934 2840 
Q 4756 3084 4391 3084 
Q 3944 3084 3684 2787 
Q 3425 2491 3425 1978 
L 3425 0 
L 2847 0 
L 2847 2094 
Q 2847 2600 2669 2842 
Q 2491 3084 2119 3084 
Q 1678 3084 1418 2786 
Q 1159 2488 1159 1978 
L 1159 0 
L 581 0 
L 581 3500 
L 1159 3500 
L 1159 2956 
Q 1356 3278 1631 3431 
Q 1906 3584 2284 3584 
Q 2666 3584 2933 3390 
Q 3200 3197 3328 2828 
z
" transform="scale(0.015625)"/>
       <path id="DejaVuSans-70" d="M 1159 525 
L 1159 -1331 
L 581 -1331 
L 581 3500 
L 1159 3500 
L 1159 2969 
Q 1341 3281 1617 3432 
Q 1894 3584 2278 3584 
Q 2916 3584 3314 3078 
Q 3713 2572 3713 1747 
Q 3713 922 3314 415 
Q 2916 -91 2278 -91 
Q 1894 -91 1617 61 
Q 1341 213 1159 525 
z
M 3116 1747 
Q 3116 2381 2855 2742 
Q 2594 3103 2138 3103 
Q 1681 3103 1420 2742 
Q 1159 2381 1159 1747 
Q 1159 1113 1420 752 
Q 1681 391 2138 391 
Q 2594 391 2855 752 
Q 3116 1113 3116 1747 
z
" transform="scale(0.015625)"/>
       <path id="DejaVuSans-6c" d="M 603 4863 
L 1178 4863 
L 1178 0 
L 603 0 
L 603 4863 
z
" transform="scale(0.015625)"/>
       <path id="DejaVuSans-65" d="M 3597 1894 
L 3597 1613 
L 953 1613 
Q 991 1019 1311 708 
Q 1631 397 2203 397 
Q 2534 397 2845 478 
Q 3156 559 3463 722 
L 3463 178 
Q 3153 47 2828 -22 
Q 2503 -91 2169 -91 
Q 1331 -91 842 396 
Q 353 884 353 1716 
Q 353 2575 817 3079 
Q 1281 3584 2069 3584 
Q 2775 3584 3186 3129 
Q 3597 2675 3597 1894 
z
M 3022 2063 
Q 3016 2534 2758 2815 
Q 2500 3097 2075 3097 
Q 1594 3097 1305 2825 
Q 1016 2553 972 2059 
L 3022 2063 
z
" transform="scale(0.015625)"/>
       <path id="DejaVuSans-73" d="M 2834 3397 
L 2834 2853 
Q 2591 2978 2328 3040 
Q 2066 3103 1784 3103 
Q 1356 3103 1142 2972 
Q 928 2841 928 2578 
Q 928 2378 1081 2264 
Q 1234 2150 1697 2047 
L 1894 2003 
Q 2506 1872 2764 1633 
Q 3022 1394 3022 966 
Q 3022 478 2636 193 
Q 2250 -91 1575 -91 
Q 1294 -91 989 -36 
Q 684 19 347 128 
L 347 722 
Q 666 556 975 473 
Q 1284 391 1588 391 
Q 1994 391 2212 530 
Q 2431 669 2431 922 
Q 2431 1156 2273 1281 
Q 2116 1406 1581 1522 
L 1381 1569 
Q 847 1681 609 1914 
Q 372 2147 372 2553 
Q 372 3047 722 3315 
Q 1072 3584 1716 3584 
Q 2034 3584 2315 3537 
Q 2597 3491 2834 3397 
z
" transform="scale(0.015625)"/>
      </defs>
      <use xlink:href="#DejaVuSans-53"/>
      <use xlink:href="#DejaVuSans-61" transform="translate(63.476562 0)"/>
      <use xlink:href="#DejaVuSans-6d" transform="translate(124.755859 0)"/>
      <use xlink:href="#DejaVuSans-70" transform="translate(222.167969 0)"/>
      <use xlink:href="#DejaVuSans-6c" transform="translate(285.644531 0)"/>
      <use xlink:href="#DejaVuSans-65" transform="translate(313.427734 0)"/>
      <use xlink:href="#DejaVuSans-73" transform="translate(374.951172 0)"/>
     </g>
    </g>
   </g>
   <g id="matplotlib.axis_2">
    <g id="ytick_1">
     <g id="line2d_13">
      <path d="M 52.160938 219.40645 
L 417.270938 219.40645 
" clip-path="url(#pad363cec9b)" style="fill: none; stroke: #b0b0b0; stroke-width: 0.8; stroke-linecap: square"/>
     </g>
     <g id="line2d_14">
      <defs>
       <path id="mfdc8db1c7f" d="M 0 0 
L -3.5 0 
" style="stroke: #000000; stroke-width: 0.8"/>
      </defs>
      <g>
       <use xlink:href="#mfdc8db1c7f" x="52.160938" y="219.40645" style="stroke: #000000; stroke-width: 0.8"/>
      </g>
     </g>
     <g id="text_8">
      <!-- −1.0 -->
      <g transform="translate(20.878125 223.205668) scale(0.1 -0.1)">
       <defs>
        <path id="DejaVuSans-2212" d="M 678 2272 
L 4684 2272 
L 4684 1741 
L 678 1741 
L 678 2272 
z
" transform="scale(0.015625)"/>
        <path id="DejaVuSans-2e" d="M 684 794 
L 1344 794 
L 1344 0 
L 684 0 
L 684 794 
z
" transform="scale(0.015625)"/>
       </defs>
       <use xlink:href="#DejaVuSans-2212"/>
       <use xlink:href="#DejaVuSans-31" transform="translate(83.789062 0)"/>
       <use xlink:href="#DejaVuSans-2e" transform="translate(147.412109 0)"/>
       <use xlink:href="#DejaVuSans-30" transform="translate(179.199219 0)"/>
      </g>
     </g>
    </g>
    <g id="ytick_2">
     <g id="line2d_15">
      <path d="M 52.160938 182.497883 
L 417.270938 182.497883 
" clip-path="url(#pad363cec9b)" style="fill: none; stroke: #b0b0b0; stroke-width: 0.8; stroke-linecap: square"/>
     </g>
     <g id="line2d_16">
      <g>
       <use xlink:href="#mfdc8db1c7f" x="52.160938" y="182.497883" style="stroke: #000000; stroke-width: 0.8"/>
      </g>
     </g>
     <g id="text_9">
      <!-- −0.5 -->
      <g transform="translate(20.878125 186.297102) scale(0.1 -0.1)">
       <use xlink:href="#DejaVuSans-2212"/>
       <use xlink:href="#DejaVuSans-30" transform="translate(83.789062 0)"/>
       <use xlink:href="#DejaVuSans-2e" transform="translate(147.412109 0)"/>
       <use xlink:href="#DejaVuSans-35" transform="translate(179.199219 0)"/>
      </g>
     </g>
    </g>
    <g id="ytick_3">
     <g id="line2d_17">
      <path d="M 52.160938 145.589316 
L 417.270938 145.589316 
" clip-path="url(#pad363cec9b)" style="fill: none; stroke: #b0b0b0; stroke-width: 0.8; stroke-linecap: square"/>
     </g>
     <g id="line2d_18">
      <g>
       <use xlink:href="#mfdc8db1c7f" x="52.160938" y="145.589316" style="stroke: #000000; stroke-width: 0.8"/>
      </g>
     </g>
     <g id="text_10">
      <!-- 0.0 -->
      <g transform="translate(29.257813 149.388535) scale(0.1 -0.1)">
       <use xlink:href="#DejaVuSans-30"/>
       <use xlink:href="#DejaVuSans-2e" transform="translate(63.623047 0)"/>
       <use xlink:href="#DejaVuSans-30" transform="translate(95.410156 0)"/>
      </g>
     </g>
    </g>
    <g id="ytick_4">
     <g id="line2d_19">
      <path d="M 52.160938 108.68075 
L 417.270938 108.68075 
" clip-path="url(#pad363cec9b)" style="fill: none; stroke: #b0b0b0; stroke-width: 0.8; stroke-linecap: square"/>
     </g>
     <g id="line2d_20">
      <g>
       <use xlink:href="#mfdc8db1c7f" x="52.160938" y="108.68075" style="stroke: #000000; stroke-width: 0.8"/>
      </g>
     </g>
     <g id="text_11">
      <!-- 0.5 -->
      <g transform="translate(29.257813 112.479969) scale(0.1 -0.1)">
       <use xlink:href="#DejaVuSans-30"/>
       <use xlink:href="#DejaVuSans-2e" transform="translate(63.623047 0)"/>
       <use xlink:href="#DejaVuSans-35" transform="translate(95.410156 0)"/>
      </g>
     </g>
    </g>
    <g id="ytick_5">
     <g id="line2d_21">
      <path d="M 52.160938 71.772183 
L 417.270938 71.772183 
" clip-path="url(#pad363cec9b)" style="fill: none; stroke: #b0b0b0; stroke-width: 0.8; stroke-linecap: square"/>
     </g>
     <g id="line2d_22">
      <g>
       <use xlink:href="#mfdc8db1c7f" x="52.160938" y="71.772183" style="stroke: #000000; stroke-width: 0.8"/>
      </g>
     </g>
     <g id="text_12">
      <!-- 1.0 -->
      <g transform="translate(29.257813 75.571402) scale(0.1 -0.1)">
       <use xlink:href="#DejaVuSans-31"/>
       <use xlink:href="#DejaVuSans-2e" transform="translate(63.623047 0)"/>
       <use xlink:href="#DejaVuSans-30" transform="translate(95.410156 0)"/>
      </g>
     </g>
    </g>
    <g id="text_13">
     <!-- Signal Value -->
     <g transform="translate(14.798438 174.461687) rotate(-90) scale(0.1 -0.1)">
      <defs>
       <path id="DejaVuSans-69" d="M 603 3500 
L 1178 3500 
L 1178 0 
L 603 0 
L 603 3500 
z
M 603 4863 
L 1178 4863 
L 1178 4134 
L 603 4134 
L 603 4863 
z
" transform="scale(0.015625)"/>
       <path id="DejaVuSans-67" d="M 2906 1791 
Q 2906 2416 2648 2759 
Q 2391 3103 1925 3103 
Q 1463 3103 1205 2759 
Q 947 2416 947 1791 
Q 947 1169 1205 825 
Q 1463 481 1925 481 
Q 2391 481 2648 825 
Q 2906 1169 2906 1791 
z
M 3481 434 
Q 3481 -459 3084 -895 
Q 2688 -1331 1869 -1331 
Q 1566 -1331 1297 -1286 
Q 1028 -1241 775 -1147 
L 775 -588 
Q 1028 -725 1275 -790 
Q 1522 -856 1778 -856 
Q 2344 -856 2625 -561 
Q 2906 -266 2906 331 
L 2906 616 
Q 2728 306 2450 153 
Q 2172 0 1784 0 
Q 1141 0 747 490 
Q 353 981 353 1791 
Q 353 2603 747 3093 
Q 1141 3584 1784 3584 
Q 2172 3584 2450 3431 
Q 2728 3278 2906 2969 
L 2906 3500 
L 3481 3500 
L 3481 434 
z
" transform="scale(0.015625)"/>
       <path id="DejaVuSans-6e" d="M 3513 2113 
L 3513 0 
L 2938 0 
L 2938 2094 
Q 2938 2591 2744 2837 
Q 2550 3084 2163 3084 
Q 1697 3084 1428 2787 
Q 1159 2491 1159 1978 
L 1159 0 
L 581 0 
L 581 3500 
L 1159 3500 
L 1159 2956 
Q 1366 3272 1645 3428 
Q 1925 3584 2291 3584 
Q 2894 3584 3203 3211 
Q 3513 2838 3513 2113 
z
" transform="scale(0.015625)"/>
       <path id="DejaVuSans-20" transform="scale(0.015625)"/>
       <path id="DejaVuSans-56" d="M 1831 0 
L 50 4666 
L 709 4666 
L 2188 738 
L 3669 4666 
L 4325 4666 
L 2547 0 
L 1831 0 
z
" transform="scale(0.015625)"/>
       <path id="DejaVuSans-75" d="M 544 1381 
L 544 3500 
L 1119 3500 
L 1119 1403 
Q 1119 906 1312 657 
Q 1506 409 1894 409 
Q 2359 409 2629 706 
Q 2900 1003 2900 1516 
L 2900 3500 
L 3475 3500 
L 3475 0 
L 2900 0 
L 2900 538 
Q 2691 219 2414 64 
Q 2138 -91 1772 -91 
Q 1169 -91 856 284 
Q 544 659 544 1381 
z
M 1991 3584 
L 1991 3584 
z
" transform="scale(0.015625)"/>
      </defs>
      <use xlink:href="#DejaVuSans-53"/>
      <use xlink:href="#DejaVuSans-69" transform="translate(63.476562 0)"/>
      <use xlink:href="#DejaVuSans-67" transform="translate(91.259766 0)"/>
      <use xlink:href="#DejaVuSans-6e" transform="translate(154.736328 0)"/>
      <use xlink:href="#DejaVuSans-61" transform="translate(218.115234 0)"/>
      <use xlink:href="#DejaVuSans-6c" transform="translate(279.394531 0)"/>
      <use xlink:href="#DejaVuSans-20" transform="translate(307.177734 0)"/>
      <use xlink:href="#DejaVuSans-56" transform="translate(338.964844 0)"/>
      <use xlink:href="#DejaVuSans-61" transform="translate(399.623047 0)"/>
      <use xlink:href="#DejaVuSans-6c" transform="translate(460.902344 0)"/>
      <use xlink:href="#DejaVuSans-75" transform="translate(488.685547 0)"/>
      <use xlink:href="#DejaVuSans-65" transform="translate(552.064453 0)"/>
     </g>
    </g>
   </g>
   <g id="line2d_23">
    <path d="M 68.756847 145.589316 
L 72.747847 118.363573 
L 74.743347 105.965514 
L 76.738847 94.976763 
L 78.06918 88.629381 
L 79.399514 83.18389 
L 80.729847 78.726514 
L 82.060181 75.327829 
L 82.725347 74.042993 
L 83.390514 73.041649 
L 84.055681 72.327767 
L 84.720847 71.904174 
L 85.386014 71.772549 
L 86.051181 71.933413 
L 86.716347 72.38613 
L 87.381514 73.128905 
L 88.046681 74.158794 
L 88.711848 75.471718 
L 90.042181 78.924759 
L 91.372514 83.433352 
L 92.702848 88.92611 
L 94.033181 95.31606 
L 96.028681 106.358404 
L 98.024181 118.796081 
L 101.350015 141.408928 
L 106.006182 173.246489 
L 108.001682 185.604438 
L 109.997182 196.539162 
L 111.327515 202.843724 
L 112.657849 208.241731 
L 113.988182 212.647714 
L 115.318515 215.991908 
L 115.983682 217.248606 
L 116.648849 218.221363 
L 117.314015 218.906325 
L 117.979182 219.300778 
L 118.644349 219.403158 
L 119.309516 219.213061 
L 119.974682 218.731239 
L 120.639849 217.959601 
L 121.305016 216.901206 
L 121.970182 215.560246 
L 123.300516 212.052986 
L 124.630849 207.493355 
L 125.961183 201.953548 
L 127.291516 195.521282 
L 129.287016 184.425784 
L 131.282516 171.948982 
L 134.60835 149.305634 
L 139.264516 117.501811 
L 141.260017 105.184461 
L 143.255517 94.304199 
L 144.58585 88.042707 
L 145.916183 82.692396 
L 147.246517 78.337982 
L 148.57685 75.048411 
L 149.242017 73.819901 
L 149.907184 72.875769 
L 150.57235 72.219755 
L 151.237517 71.854458 
L 151.902684 71.781326 
L 152.56785 72.000649 
L 153.233017 72.511558 
L 153.898184 73.312028 
L 154.563351 74.398887 
L 155.228517 75.767829 
L 156.558851 79.329169 
L 157.889184 83.939658 
L 159.219517 89.526294 
L 160.549851 96.000621 
L 162.545351 107.148833 
L 164.540851 119.664266 
L 167.866684 142.337216 
L 172.522851 174.106041 
L 174.518351 186.382304 
L 176.513852 197.207674 
L 177.844185 203.425847 
L 179.174518 208.728249 
L 180.504852 213.030922 
L 181.835185 216.26574 
L 182.500352 217.466012 
L 183.165518 218.381482 
L 183.830685 219.008523 
L 184.495852 219.344649 
L 185.161019 219.388529 
L 185.826185 219.13999 
L 186.491352 218.600015 
L 187.156519 217.770745 
L 187.821685 216.655465 
L 188.486852 215.258594 
L 189.817185 211.643316 
L 191.147519 206.982152 
L 192.477852 201.348907 
L 193.808186 194.832777 
L 195.803686 183.632292 
L 197.799186 171.078724 
L 201.125019 148.377071 
L 205.116019 120.974207 
L 207.11152 108.345865 
L 209.10702 97.042168 
L 210.437353 90.443207 
L 211.767686 84.717417 
L 213.09802 79.95546 
L 214.428353 76.232736 
L 215.09352 74.780176 
L 215.758687 73.608189 
L 216.423853 72.721417 
L 217.08902 72.123375 
L 217.754187 71.816433 
L 218.419353 71.801806 
L 219.08452 72.079552 
L 219.749687 72.648572 
L 220.414854 73.50661 
L 221.08002 74.650266 
L 221.745187 76.07501 
L 223.07552 79.744084 
L 224.405854 84.455738 
L 225.736187 90.135367 
L 227.06652 96.693043 
L 229.062021 107.945357 
L 231.057521 120.536562 
L 234.383354 143.266019 
L 238.374354 170.642071 
L 240.369854 183.233276 
L 242.365355 194.48559 
L 243.695688 201.043266 
L 245.026021 206.722895 
L 246.356355 211.434549 
L 247.686688 215.103623 
L 248.351855 216.528367 
L 249.017021 217.672023 
L 249.682188 218.530061 
L 250.347355 219.099081 
L 251.012522 219.376827 
L 251.677688 219.3622 
L 252.342855 219.055258 
L 253.008022 218.457216 
L 253.673188 217.570444 
L 254.338355 216.398457 
L 255.003522 214.945897 
L 256.333855 211.223173 
L 257.664189 206.461216 
L 258.994522 200.735426 
L 260.324855 194.136465 
L 262.320355 182.832768 
L 264.315856 170.204426 
L 267.641689 147.448065 
L 271.632689 120.099909 
L 273.628189 107.546341 
L 275.623689 96.345856 
L 276.954023 89.829726 
L 278.284356 84.196481 
L 279.61469 79.535317 
L 280.945023 75.920039 
L 281.61019 74.523168 
L 282.275356 73.407888 
L 282.940523 72.578618 
L 283.60569 72.038643 
L 284.270856 71.790104 
L 284.936023 71.833984 
L 285.60119 72.17011 
L 286.266357 72.79715 
L 286.931523 73.712621 
L 287.59669 74.912893 
L 288.261857 76.393211 
L 289.59219 80.169438 
L 290.922523 84.98151 
L 292.252857 90.753232 
L 293.58319 97.393217 
L 295.57869 108.747849 
L 297.57419 121.412829 
L 300.900024 144.195191 
L 304.891024 171.514367 
L 306.886524 184.0298 
L 308.882024 195.178012 
L 310.212358 201.652339 
L 311.542691 207.238975 
L 312.873024 211.849464 
L 314.203358 215.410804 
L 314.868524 216.779746 
L 315.533691 217.866605 
L 316.198858 218.667075 
L 316.864025 219.177984 
L 317.529191 219.397306 
L 318.194358 219.324175 
L 318.859525 218.958878 
L 319.524691 218.302864 
L 320.189858 217.358732 
L 320.855025 216.130222 
L 322.185358 212.840651 
L 323.515692 208.486237 
L 324.846025 203.135926 
L 326.176358 196.874434 
L 328.171858 185.994172 
L 330.167359 173.676822 
L 332.828025 155.780854 
L 338.814526 114.943788 
L 340.810026 102.880229 
L 342.805526 92.335713 
L 344.135859 86.337793 
L 345.466193 81.27805 
L 346.796526 77.236598 
L 348.126859 74.277427 
L 348.792026 73.219032 
L 349.457193 72.447394 
L 350.122359 71.965572 
L 350.787526 71.775475 
L 351.452693 71.877855 
L 352.11786 72.272308 
L 352.783026 72.95727 
L 353.448193 73.930027 
L 354.11336 75.186725 
L 355.443693 78.530919 
L 356.774026 82.936902 
L 358.10436 88.334909 
L 359.434693 94.639471 
L 361.430193 105.574194 
L 363.425693 117.932144 
L 366.08636 135.858264 
L 371.407694 172.382552 
L 373.403194 184.820229 
L 375.398694 195.862572 
L 376.729027 202.252523 
L 378.059361 207.74528 
L 379.389694 212.253874 
L 380.720027 215.706914 
L 381.385194 217.019838 
L 382.050361 218.049728 
L 382.715528 218.792503 
L 383.380694 219.245219 
L 384.045861 219.406084 
L 384.711028 219.274459 
L 385.376194 218.850866 
L 386.041361 218.136983 
L 386.706528 217.13564 
L 387.371694 215.850804 
L 388.702028 212.452119 
L 390.032361 207.994743 
L 391.362695 202.549252 
L 392.693028 196.20187 
L 394.688528 185.213119 
L 396.684028 172.81506 
L 400.009862 150.233609 
L 400.675028 145.589316 
L 400.675028 145.589316 
" clip-path="url(#pad363cec9b)" style="fill: none; stroke: #0000ff; stroke-width: 2; stroke-linecap: square"/>
   </g>
   <g id="line2d_24">
    <path d="M 68.756847 145.589316 
L 69.422013 145.589316 
L 70.08718 148.560825 
L 70.752347 138.908736 
L 71.417513 122.296279 
L 72.08268 138.147248 
L 72.747847 122.422413 
L 73.413013 123.886092 
L 74.07818 108.937392 
L 74.743347 112.095074 
L 75.408514 125.351633 
L 76.07368 91.98467 
L 76.738847 101.772943 
L 77.404014 95.333595 
L 78.06918 99.396041 
L 78.734347 90.971929 
L 79.399514 108.078769 
L 80.06468 61.410307 
L 80.729847 108.595456 
L 81.395014 71.148294 
L 82.060181 88.620564 
L 82.725347 75.780163 
L 83.390514 75.900504 
L 84.055681 73.419444 
L 84.720847 86.12872 
L 85.386014 63.349679 
L 86.051181 96.160203 
L 86.716347 52.411091 
L 87.381514 95.671712 
L 88.046681 82.277351 
L 88.711848 84.314832 
L 89.377014 85.055831 
L 90.042181 81.939971 
L 90.707348 89.94652 
L 91.372514 83.301395 
L 92.037681 97.160269 
L 92.702848 82.988588 
L 93.368014 106.989901 
L 94.033181 89.925478 
L 94.698348 115.835149 
L 95.363514 89.10922 
L 96.028681 111.099258 
L 96.693848 99.330736 
L 97.359015 134.151255 
L 98.024181 97.261474 
L 98.689348 143.174947 
L 99.354515 109.494074 
L 100.019681 140.925146 
L 100.684848 124.737379 
L 101.350015 149.022753 
L 102.015181 129.037431 
L 102.680348 168.996772 
L 103.345515 136.078936 
L 104.010682 175.498616 
L 104.675848 136.462773 
L 105.341015 192.259728 
L 106.006182 143.967916 
L 106.671348 207.129701 
L 107.336515 147.947424 
L 108.001682 203.118372 
L 108.666848 163.369317 
L 109.332015 199.037848 
L 109.997182 184.940505 
L 110.662349 200.756668 
L 111.327515 184.470459 
L 111.992682 215.905434 
L 112.657849 194.734593 
L 113.323015 203.371689 
L 113.988182 209.831391 
L 114.653349 197.891563 
L 115.318515 210.304092 
L 115.983682 207.215068 
L 116.648849 217.318879 
L 117.314015 202.742425 
L 117.979182 222.678405 
L 118.644349 210.07952 
L 119.309516 202.293884 
L 119.974682 213.146479 
L 120.639849 213.609664 
L 121.305016 220.626787 
L 121.970182 195.681313 
L 122.635349 213.53472 
L 123.300516 197.654586 
L 123.965682 202.614715 
L 124.630849 200.462112 
L 125.296016 204.680304 
L 125.961183 195.507926 
L 126.626349 188.649692 
L 127.291516 198.459017 
L 127.956683 180.225843 
L 128.621849 202.237332 
L 129.287016 175.02443 
L 129.952183 180.135284 
L 130.617349 182.047969 
L 131.282516 168.411073 
L 131.947683 149.096715 
L 132.61285 190.500866 
L 133.278016 131.496463 
L 133.943183 180.992793 
L 134.60835 137.858994 
L 135.273516 158.206442 
L 135.938683 137.041718 
L 136.60385 137.883385 
L 137.269016 136.587252 
L 137.934183 131.491825 
L 138.59935 117.936062 
L 139.264516 130.882011 
L 139.929683 112.852765 
L 140.59485 134.959541 
L 141.260017 91.772061 
L 141.925183 132.021787 
L 142.59035 79.510235 
L 143.255517 109.803179 
L 143.920683 75.665916 
L 144.58585 111.68534 
L 145.251017 78.602059 
L 145.916183 93.528734 
L 146.58135 89.219149 
L 147.246517 82.562057 
L 147.911684 74.295215 
L 148.57685 97.743547 
L 149.242017 62.459063 
L 149.907184 87.554755 
L 150.57235 91.771153 
L 151.237517 60.190287 
L 151.902684 99.222557 
L 152.56785 76.467254 
L 153.233017 77.885713 
L 153.898184 71.875065 
L 154.563351 86.37639 
L 155.228517 73.174472 
L 155.893684 96.568879 
L 156.558851 75.957629 
L 157.224017 89.162198 
L 157.889184 94.463282 
L 158.554351 74.885405 
L 159.219517 107.889112 
L 159.884684 78.915746 
L 160.549851 106.497095 
L 161.215017 87.769226 
L 161.880184 123.611211 
L 162.545351 101.410076 
L 163.210518 114.399442 
L 163.875684 113.773691 
L 164.540851 112.5149 
L 165.206018 143.451496 
L 165.871184 119.194221 
L 166.536351 131.606246 
L 167.201518 131.540004 
L 167.866684 146.877044 
L 169.197018 139.830076 
L 169.862185 158.631833 
L 170.527351 156.132522 
L 171.192518 157.68134 
L 172.522851 170.281142 
L 173.188018 170.49413 
L 173.853185 164.71709 
L 174.518351 177.965001 
L 175.183518 183.218696 
L 175.848685 175.087224 
L 176.513852 199.565937 
L 177.179018 179.596886 
L 177.844185 210.992392 
L 178.509352 183.719164 
L 179.174518 207.947918 
L 179.839685 188.553186 
L 180.504852 221.662855 
L 181.170018 199.207126 
L 181.835185 212.231443 
L 182.500352 214.152217 
L 183.165518 217.102441 
L 183.830685 208.740059 
L 184.495852 203.678774 
L 185.161019 215.681672 
L 185.826185 213.913565 
L 186.491352 226.638717 
L 187.156519 200.471248 
L 187.821685 215.481345 
L 189.152019 205.140439 
L 189.817185 214.012314 
L 190.482352 204.608784 
L 191.147519 189.552302 
L 191.812686 211.943468 
L 192.477852 189.547782 
L 193.143019 193.251286 
L 193.808186 184.700238 
L 194.473352 191.333723 
L 195.138519 184.980584 
L 195.803686 188.733144 
L 196.468852 174.46487 
L 197.134019 179.128851 
L 197.799186 150.449665 
L 198.464353 172.804365 
L 199.129519 144.241221 
L 199.794686 170.607802 
L 200.459853 135.028685 
L 201.125019 155.859744 
L 202.455353 134.504648 
L 203.120519 141.372662 
L 203.785686 134.186253 
L 204.450853 123.846751 
L 205.116019 135.108926 
L 205.781186 109.976821 
L 206.446353 133.456725 
L 207.11152 105.758574 
L 207.776686 120.48212 
L 208.441853 101.220172 
L 209.10702 113.129727 
L 209.772186 99.165369 
L 210.437353 92.918462 
L 211.10252 107.527351 
L 211.767686 89.586458 
L 212.432853 94.366379 
L 213.09802 86.508712 
L 213.763187 87.815556 
L 214.428353 89.46774 
L 215.09352 81.416589 
L 215.758687 84.60735 
L 216.423853 80.634005 
L 217.08902 77.46897 
L 217.754187 85.938699 
L 218.419353 75.772784 
L 219.08452 84.634872 
L 219.749687 79.795099 
L 220.414854 76.338794 
L 221.08002 86.309864 
L 221.745187 75.618536 
L 222.410354 88.23441 
L 223.07552 77.495942 
L 223.740687 75.753977 
L 224.405854 103.261538 
L 225.07102 87.524753 
L 225.736187 107.164998 
L 226.401354 93.55097 
L 227.06652 110.360289 
L 227.731687 103.503709 
L 228.396854 120.200359 
L 229.062021 102.737478 
L 229.727187 101.829111 
L 230.392354 122.307938 
L 231.057521 114.146744 
L 231.722687 137.072107 
L 232.387854 117.049956 
L 233.053021 147.722431 
L 233.718187 136.982562 
L 234.383354 130.518547 
L 235.048521 153.701522 
L 235.713688 136.422762 
L 236.378854 156.814712 
L 237.044021 148.870154 
L 237.709188 176.057991 
L 238.374354 146.670336 
L 239.039521 186.738094 
L 239.704688 169.760287 
L 240.369854 183.543885 
L 241.035021 173.90681 
L 241.700188 192.51828 
L 242.365355 195.278854 
L 243.030521 185.116465 
L 243.695688 192.902589 
L 244.360855 191.126799 
L 245.691188 203.691371 
L 246.356355 199.634279 
L 247.021521 217.354599 
L 247.686688 208.777131 
L 248.351855 203.975036 
L 249.017021 224.810288 
L 249.682188 202.999287 
L 250.347355 228.031461 
L 251.012522 202.282266 
L 251.677688 223.276187 
L 252.342855 209.61863 
L 253.008022 206.705338 
L 253.673188 220.231149 
L 254.338355 208.042175 
L 255.003522 210.475796 
L 255.668688 201.742612 
L 256.333855 220.788634 
L 256.999022 183.867533 
L 257.664189 221.594073 
L 258.329355 188.343731 
L 258.994522 205.250944 
L 259.659689 192.234193 
L 260.324855 188.941054 
L 260.990022 187.392582 
L 261.655189 175.456297 
L 262.320355 191.807361 
L 262.985522 153.409077 
L 263.650689 192.826489 
L 264.315856 155.004236 
L 264.981022 171.46089 
L 265.646189 163.088126 
L 266.311356 171.874577 
L 266.976522 145.229112 
L 267.641689 164.61267 
L 268.306856 131.897425 
L 268.972022 133.944138 
L 269.637189 156.492768 
L 270.302356 108.143131 
L 270.967522 155.989711 
L 271.632689 106.674455 
L 272.297856 126.585797 
L 272.963023 118.593343 
L 273.628189 123.503324 
L 274.293356 98.128523 
L 274.958523 117.052044 
L 275.623689 94.024929 
L 276.288856 104.158655 
L 276.954023 104.901495 
L 277.619189 101.471621 
L 278.284356 69.055221 
L 278.949523 98.160334 
L 279.61469 76.637761 
L 280.279856 92.067992 
L 280.945023 79.650623 
L 281.61019 78.503521 
L 282.275356 76.034536 
L 282.940523 91.250926 
L 283.60569 58.264625 
L 284.270856 100.361573 
L 284.936023 65.08242 
L 285.60119 85.985618 
L 286.266357 78.021846 
L 286.931523 84.071973 
L 287.59669 79.352658 
L 288.261857 83.167127 
L 288.927023 84.199227 
L 290.257357 87.60287 
L 290.922523 76.287237 
L 291.58769 105.897694 
L 292.252857 72.691093 
L 292.918023 119.828078 
L 293.58319 78.530837 
L 294.248357 116.301396 
L 294.913524 102.888074 
L 295.57869 116.437508 
L 296.909024 109.806536 
L 297.57419 115.447024 
L 298.239357 118.911838 
L 298.904524 135.588761 
L 299.56969 141.983327 
L 300.234857 143.86905 
L 300.900024 121.866952 
L 301.565191 168.650143 
L 302.230357 135.895802 
L 302.895524 151.51688 
L 303.560691 162.842307 
L 304.225857 166.185519 
L 304.891024 167.27724 
L 305.556191 183.312601 
L 306.221357 168.284683 
L 306.886524 184.982637 
L 307.551691 186.519404 
L 308.216858 170.911995 
L 309.547191 206.707441 
L 310.212358 188.114338 
L 310.877524 205.67047 
L 311.542691 186.470617 
L 312.207858 219.640077 
L 312.873024 194.564529 
L 313.538191 206.860518 
L 314.203358 210.007466 
L 314.868524 202.505485 
L 315.533691 218.222752 
L 316.198858 188.905144 
L 316.864025 225.785929 
L 317.529191 192.030581 
L 318.194358 235.152909 
L 318.859525 171.950662 
L 319.524691 233.444322 
L 320.189858 191.738824 
L 320.855025 221.231599 
L 321.520191 206.5046 
L 322.185358 204.780645 
L 322.850525 207.158144 
L 323.515692 195.237359 
L 324.180858 200.995489 
L 324.846025 202.064043 
L 325.511192 190.160199 
L 326.176358 194.349287 
L 326.841525 204.341476 
L 327.506692 176.7769 
L 328.171858 198.478178 
L 328.837025 164.944899 
L 329.502192 181.400347 
L 330.167359 166.257969 
L 330.832525 170.25348 
L 331.497692 170.064819 
L 332.162859 149.79532 
L 332.828025 167.046687 
L 333.493192 159.300351 
L 334.158359 147.123448 
L 334.823525 146.307827 
L 335.488692 133.911842 
L 336.153859 157.171367 
L 336.819025 110.842721 
L 337.484192 140.559714 
L 338.149359 109.416854 
L 338.814526 136.082547 
L 339.479692 98.399098 
L 340.144859 134.327305 
L 340.810026 73.632152 
L 341.475192 131.515008 
L 342.140359 88.210459 
L 342.805526 106.456163 
L 343.470692 89.669227 
L 344.135859 93.52671 
L 344.801026 89.064902 
L 345.466193 80.197889 
L 346.131359 94.129137 
L 346.796526 72.803569 
L 347.461693 86.091498 
L 348.126859 88.656836 
L 348.792026 76.871841 
L 349.457193 85.110113 
L 350.122359 69.364638 
L 350.787526 85.412111 
L 351.452693 85.392449 
L 352.11786 76.907002 
L 352.783026 85.213648 
L 353.448193 73.093489 
L 354.11336 89.873498 
L 354.778526 82.775606 
L 355.443693 68.299591 
L 356.10886 100.090459 
L 356.774026 67.26476 
L 357.439193 107.297056 
L 358.10436 79.771309 
L 358.769526 109.810236 
L 359.434693 92.995926 
L 360.09986 94.162083 
L 360.765027 106.340161 
L 361.430193 107.610749 
L 362.09536 105.041692 
L 362.760527 134.575363 
L 363.425693 101.218658 
L 364.09086 134.987589 
L 364.756027 113.960913 
L 365.421193 148.366764 
L 366.08636 124.097758 
L 366.751527 148.006362 
L 367.416694 137.187377 
L 368.08186 145.272922 
L 368.747027 141.068928 
L 369.412194 160.610492 
L 370.07736 153.176629 
L 370.742527 162.532671 
L 371.407694 169.917784 
L 372.07286 161.429582 
L 372.738027 192.601392 
L 373.403194 169.450456 
L 374.068361 203.242518 
L 374.733527 173.765043 
L 375.398694 202.980894 
L 376.063861 194.570516 
L 376.729027 202.01326 
L 377.394194 193.619036 
L 378.059361 217.211925 
L 378.724527 195.862705 
L 379.389694 186.008103 
L 380.054861 211.79163 
L 380.720027 200.549089 
L 381.385194 221.612634 
L 382.050361 193.605647 
L 382.715528 227.591811 
L 383.380694 199.000447 
L 384.045861 213.910995 
L 384.711028 205.533773 
L 385.376194 209.432239 
L 386.041361 218.137662 
L 386.706528 220.315636 
L 387.371694 195.855396 
L 388.036861 201.087928 
L 388.702028 219.753276 
L 389.367195 195.988738 
L 390.032361 208.594868 
L 390.697528 199.456199 
L 391.362695 200.564938 
L 392.027861 199.887251 
L 393.358195 182.26232 
L 394.023361 191.989808 
L 394.688528 177.108489 
L 395.353695 188.811255 
L 396.018862 170.376067 
L 396.684028 183.378988 
L 397.349195 166.805683 
L 398.014362 170.083068 
L 398.679528 160.19029 
L 399.344695 160.525822 
L 400.009862 154.660698 
L 400.675028 135.03456 
L 400.675028 135.03456 
" clip-path="url(#pad363cec9b)" style="fill: none; stroke-dasharray: 5.55,2.4; stroke-dashoffset: 0; stroke: #ff0000; stroke-width: 1.5"/>
   </g>
   <g id="patch_3">
    <path d="M 52.160938 244.29 
L 52.160938 43.274 
" style="fill: none; stroke: #000000; stroke-width: 0.8; stroke-linejoin: miter; stroke-linecap: square"/>
   </g>
   <g id="patch_4">
    <path d="M 417.270938 244.29 
L 417.270938 43.274 
" style="fill: none; stroke: #000000; stroke-width: 0.8; stroke-linejoin: miter; stroke-linecap: square"/>
   </g>
   <g id="patch_5">
    <path d="M 52.160938 244.29 
L 417.270938 244.29 
" style="fill: none; stroke: #000000; stroke-width: 0.8; stroke-linejoin: miter; stroke-linecap: square"/>
   </g>
   <g id="patch_6">
    <path d="M 52.160938 43.274 
L 417.270938 43.274 
" style="fill: none; stroke: #000000; stroke-width: 0.8; stroke-linejoin: miter; stroke-linecap: square"/>
   </g>
   <g id="text_14">
    <!-- Tracking Performance -->
    <g transform="translate(148.182188 19.3575) scale(0.16 -0.16)">
     <defs>
      <path id="DejaVuSans-54" d="M -19 4666 
L 3928 4666 
L 3928 4134 
L 2272 4134 
L 2272 0 
L 1638 0 
L 1638 4134 
L -19 4134 
L -19 4666 
z
" transform="scale(0.015625)"/>
      <path id="DejaVuSans-72" d="M 2631 2963 
Q 2534 3019 2420 3045 
Q 2306 3072 2169 3072 
Q 1681 3072 1420 2755 
Q 1159 2438 1159 1844 
L 1159 0 
L 581 0 
L 581 3500 
L 1159 3500 
L 1159 2956 
Q 1341 3275 1631 3429 
Q 1922 3584 2338 3584 
Q 2397 3584 2469 3576 
Q 2541 3569 2628 3553 
L 2631 2963 
z
" transform="scale(0.015625)"/>
      <path id="DejaVuSans-63" d="M 3122 3366 
L 3122 2828 
Q 2878 2963 2633 3030 
Q 2388 3097 2138 3097 
Q 1578 3097 1268 2742 
Q 959 2388 959 1747 
Q 959 1106 1268 751 
Q 1578 397 2138 397 
Q 2388 397 2633 464 
Q 2878 531 3122 666 
L 3122 134 
Q 2881 22 2623 -34 
Q 2366 -91 2075 -91 
Q 1284 -91 818 406 
Q 353 903 353 1747 
Q 353 2603 823 3093 
Q 1294 3584 2113 3584 
Q 2378 3584 2631 3529 
Q 2884 3475 3122 3366 
z
" transform="scale(0.015625)"/>
      <path id="DejaVuSans-6b" d="M 581 4863 
L 1159 4863 
L 1159 1991 
L 2875 3500 
L 3609 3500 
L 1753 1863 
L 3688 0 
L 2938 0 
L 1159 1709 
L 1159 0 
L 581 0 
L 581 4863 
z
" transform="scale(0.015625)"/>
      <path id="DejaVuSans-50" d="M 1259 4147 
L 1259 2394 
L 2053 2394 
Q 2494 2394 2734 2622 
Q 2975 2850 2975 3272 
Q 2975 3691 2734 3919 
Q 2494 4147 2053 4147 
L 1259 4147 
z
M 628 4666 
L 2053 4666 
Q 2838 4666 3239 4311 
Q 3641 3956 3641 3272 
Q 3641 2581 3239 2228 
Q 2838 1875 2053 1875 
L 1259 1875 
L 1259 0 
L 628 0 
L 628 4666 
z
" transform="scale(0.015625)"/>
      <path id="DejaVuSans-66" d="M 2375 4863 
L 2375 4384 
L 1825 4384 
Q 1516 4384 1395 4259 
Q 1275 4134 1275 3809 
L 1275 3500 
L 2222 3500 
L 2222 3053 
L 1275 3053 
L 1275 0 
L 697 0 
L 697 3053 
L 147 3053 
L 147 3500 
L 697 3500 
L 697 3744 
Q 697 4328 969 4595 
Q 1241 4863 1831 4863 
L 2375 4863 
z
" transform="scale(0.015625)"/>
      <path id="DejaVuSans-6f" d="M 1959 3097 
Q 1497 3097 1228 2736 
Q 959 2375 959 1747 
Q 959 1119 1226 758 
Q 1494 397 1959 397 
Q 2419 397 2687 759 
Q 2956 1122 2956 1747 
Q 2956 2369 2687 2733 
Q 2419 3097 1959 3097 
z
M 1959 3584 
Q 2709 3584 3137 3096 
Q 3566 2609 3566 1747 
Q 3566 888 3137 398 
Q 2709 -91 1959 -91 
Q 1206 -91 779 398 
Q 353 888 353 1747 
Q 353 2609 779 3096 
Q 1206 3584 1959 3584 
z
" transform="scale(0.015625)"/>
     </defs>
     <use xlink:href="#DejaVuSans-54"/>
     <use xlink:href="#DejaVuSans-72" transform="translate(46.333984 0)"/>
     <use xlink:href="#DejaVuSans-61" transform="translate(87.447266 0)"/>
     <use xlink:href="#DejaVuSans-63" transform="translate(148.726562 0)"/>
     <use xlink:href="#DejaVuSans-6b" transform="translate(203.707031 0)"/>
     <use xlink:href="#DejaVuSans-69" transform="translate(261.617188 0)"/>
     <use xlink:href="#DejaVuSans-6e" transform="translate(289.400391 0)"/>
     <use xlink:href="#DejaVuSans-67" transform="translate(352.779297 0)"/>
     <use xlink:href="#DejaVuSans-20" transform="translate(416.255859 0)"/>
     <use xlink:href="#DejaVuSans-50" transform="translate(448.042969 0)"/>
     <use xlink:href="#DejaVuSans-65" transform="translate(504.720703 0)"/>
     <use xlink:href="#DejaVuSans-72" transform="translate(566.244141 0)"/>
     <use xlink:href="#DejaVuSans-66" transform="translate(607.357422 0)"/>
     <use xlink:href="#DejaVuSans-6f" transform="translate(642.5625 0)"/>
     <use xlink:href="#DejaVuSans-72" transform="translate(703.744141 0)"/>
     <use xlink:href="#DejaVuSans-6d" transform="translate(743.107422 0)"/>
     <use xlink:href="#DejaVuSans-61" transform="translate(840.519531 0)"/>
     <use xlink:href="#DejaVuSans-6e" transform="translate(901.798828 0)"/>
     <use xlink:href="#DejaVuSans-63" transform="translate(965.177734 0)"/>
     <use xlink:href="#DejaVuSans-65" transform="translate(1020.158203 0)"/>
    </g>
    <!-- Rel. MAE: 77.85%, RMSE: 0.1730, R²: 0.9401 -->
    <g transform="translate(56.124688 37.274) scale(0.16 -0.16)">
     <defs>
      <path id="DejaVuSans-52" d="M 2841 2188 
Q 3044 2119 3236 1894 
Q 3428 1669 3622 1275 
L 4263 0 
L 3584 0 
L 2988 1197 
Q 2756 1666 2539 1819 
Q 2322 1972 1947 1972 
L 1259 1972 
L 1259 0 
L 628 0 
L 628 4666 
L 2053 4666 
Q 2853 4666 3247 4331 
Q 3641 3997 3641 3322 
Q 3641 2881 3436 2590 
Q 3231 2300 2841 2188 
z
M 1259 4147 
L 1259 2491 
L 2053 2491 
Q 2509 2491 2742 2702 
Q 2975 2913 2975 3322 
Q 2975 3731 2742 3939 
Q 2509 4147 2053 4147 
L 1259 4147 
z
" transform="scale(0.015625)"/>
      <path id="DejaVuSans-4d" d="M 628 4666 
L 1569 4666 
L 2759 1491 
L 3956 4666 
L 4897 4666 
L 4897 0 
L 4281 0 
L 4281 4097 
L 3078 897 
L 2444 897 
L 1241 4097 
L 1241 0 
L 628 0 
L 628 4666 
z
" transform="scale(0.015625)"/>
      <path id="DejaVuSans-41" d="M 2188 4044 
L 1331 1722 
L 3047 1722 
L 2188 4044 
z
M 1831 4666 
L 2547 4666 
L 4325 0 
L 3669 0 
L 3244 1197 
L 1141 1197 
L 716 0 
L 50 0 
L 1831 4666 
z
" transform="scale(0.015625)"/>
      <path id="DejaVuSans-45" d="M 628 4666 
L 3578 4666 
L 3578 4134 
L 1259 4134 
L 1259 2753 
L 3481 2753 
L 3481 2222 
L 1259 2222 
L 1259 531 
L 3634 531 
L 3634 0 
L 628 0 
L 628 4666 
z
" transform="scale(0.015625)"/>
      <path id="DejaVuSans-3a" d="M 750 794 
L 1409 794 
L 1409 0 
L 750 0 
L 750 794 
z
M 750 3309 
L 1409 3309 
L 1409 2516 
L 750 2516 
L 750 3309 
z
" transform="scale(0.015625)"/>
      <path id="DejaVuSans-37" d="M 525 4666 
L 3525 4666 
L 3525 4397 
L 1831 0 
L 1172 0 
L 2766 4134 
L 525 4134 
L 525 4666 
z
" transform="scale(0.015625)"/>
      <path id="DejaVuSans-38" d="M 2034 2216 
Q 1584 2216 1326 1975 
Q 1069 1734 1069 1313 
Q 1069 891 1326 650 
Q 1584 409 2034 409 
Q 2484 409 2743 651 
Q 3003 894 3003 1313 
Q 3003 1734 2745 1975 
Q 2488 2216 2034 2216 
z
M 1403 2484 
Q 997 2584 770 2862 
Q 544 3141 544 3541 
Q 544 4100 942 4425 
Q 1341 4750 2034 4750 
Q 2731 4750 3128 4425 
Q 3525 4100 3525 3541 
Q 3525 3141 3298 2862 
Q 3072 2584 2669 2484 
Q 3125 2378 3379 2068 
Q 3634 1759 3634 1313 
Q 3634 634 3220 271 
Q 2806 -91 2034 -91 
Q 1263 -91 848 271 
Q 434 634 434 1313 
Q 434 1759 690 2068 
Q 947 2378 1403 2484 
z
M 1172 3481 
Q 1172 3119 1398 2916 
Q 1625 2713 2034 2713 
Q 2441 2713 2670 2916 
Q 2900 3119 2900 3481 
Q 2900 3844 2670 4047 
Q 2441 4250 2034 4250 
Q 1625 4250 1398 4047 
Q 1172 3844 1172 3481 
z
" transform="scale(0.015625)"/>
      <path id="DejaVuSans-25" d="M 4653 2053 
Q 4381 2053 4226 1822 
Q 4072 1591 4072 1178 
Q 4072 772 4226 539 
Q 4381 306 4653 306 
Q 4919 306 5073 539 
Q 5228 772 5228 1178 
Q 5228 1588 5073 1820 
Q 4919 2053 4653 2053 
z
M 4653 2450 
Q 5147 2450 5437 2106 
Q 5728 1763 5728 1178 
Q 5728 594 5436 251 
Q 5144 -91 4653 -91 
Q 4153 -91 3862 251 
Q 3572 594 3572 1178 
Q 3572 1766 3864 2108 
Q 4156 2450 4653 2450 
z
M 1428 4353 
Q 1159 4353 1004 4120 
Q 850 3888 850 3481 
Q 850 3069 1003 2837 
Q 1156 2606 1428 2606 
Q 1700 2606 1854 2837 
Q 2009 3069 2009 3481 
Q 2009 3884 1853 4118 
Q 1697 4353 1428 4353 
z
M 4250 4750 
L 4750 4750 
L 1831 -91 
L 1331 -91 
L 4250 4750 
z
M 1428 4750 
Q 1922 4750 2215 4408 
Q 2509 4066 2509 3481 
Q 2509 2891 2217 2550 
Q 1925 2209 1428 2209 
Q 931 2209 642 2551 
Q 353 2894 353 3481 
Q 353 4063 643 4406 
Q 934 4750 1428 4750 
z
" transform="scale(0.015625)"/>
      <path id="DejaVuSans-2c" d="M 750 794 
L 1409 794 
L 1409 256 
L 897 -744 
L 494 -744 
L 750 256 
L 750 794 
z
" transform="scale(0.015625)"/>
      <path id="DejaVuSans-b2" d="M 838 2444 
L 2163 2444 
L 2163 2088 
L 294 2088 
L 294 2431 
Q 400 2528 597 2703 
Q 1672 3656 1672 3950 
Q 1672 4156 1509 4282 
Q 1347 4409 1081 4409 
Q 919 4409 728 4354 
Q 538 4300 313 4191 
L 313 4575 
Q 553 4663 761 4706 
Q 969 4750 1147 4750 
Q 1600 4750 1872 4544 
Q 2144 4338 2144 4000 
Q 2144 3566 1109 2678 
Q 934 2528 838 2444 
z
" transform="scale(0.015625)"/>
      <path id="DejaVuSans-39" d="M 703 97 
L 703 672 
Q 941 559 1184 500 
Q 1428 441 1663 441 
Q 2288 441 2617 861 
Q 2947 1281 2994 2138 
Q 2813 1869 2534 1725 
Q 2256 1581 1919 1581 
Q 1219 1581 811 2004 
Q 403 2428 403 3163 
Q 403 3881 828 4315 
Q 1253 4750 1959 4750 
Q 2769 4750 3195 4129 
Q 3622 3509 3622 2328 
Q 3622 1225 3098 567 
Q 2575 -91 1691 -91 
Q 1453 -91 1209 -44 
Q 966 3 703 97 
z
M 1959 2075 
Q 2384 2075 2632 2365 
Q 2881 2656 2881 3163 
Q 2881 3666 2632 3958 
Q 2384 4250 1959 4250 
Q 1534 4250 1286 3958 
Q 1038 3666 1038 3163 
Q 1038 2656 1286 2365 
Q 1534 2075 1959 2075 
z
" transform="scale(0.015625)"/>
     </defs>
     <use xlink:href="#DejaVuSans-52"/>
     <use xlink:href="#DejaVuSans-65" transform="translate(64.982422 0)"/>
     <use xlink:href="#DejaVuSans-6c" transform="translate(126.505859 0)"/>
     <use xlink:href="#DejaVuSans-2e" transform="translate(154.289062 0)"/>
     <use xlink:href="#DejaVuSans-20" transform="translate(186.076172 0)"/>
     <use xlink:href="#DejaVuSans-4d" transform="translate(217.863281 0)"/>
     <use xlink:href="#DejaVuSans-41" transform="translate(304.142578 0)"/>
     <use xlink:href="#DejaVuSans-45" transform="translate(372.550781 0)"/>
     <use xlink:href="#DejaVuSans-3a" transform="translate(435.734375 0)"/>
     <use xlink:href="#DejaVuSans-20" transform="translate(469.425781 0)"/>
     <use xlink:href="#DejaVuSans-37" transform="translate(501.212891 0)"/>
     <use xlink:href="#DejaVuSans-37" transform="translate(564.835938 0)"/>
     <use xlink:href="#DejaVuSans-2e" transform="translate(628.458984 0)"/>
     <use xlink:href="#DejaVuSans-38" transform="translate(660.246094 0)"/>
     <use xlink:href="#DejaVuSans-35" transform="translate(723.869141 0)"/>
     <use xlink:href="#DejaVuSans-25" transform="translate(787.492188 0)"/>
     <use xlink:href="#DejaVuSans-2c" transform="translate(882.511719 0)"/>
     <use xlink:href="#DejaVuSans-20" transform="translate(914.298828 0)"/>
     <use xlink:href="#DejaVuSans-52" transform="translate(946.085938 0)"/>
     <use xlink:href="#DejaVuSans-4d" transform="translate(1015.568359 0)"/>
     <use xlink:href="#DejaVuSans-53" transform="translate(1101.847656 0)"/>
     <use xlink:href="#DejaVuSans-45" transform="translate(1165.324219 0)"/>
     <use xlink:href="#DejaVuSans-3a" transform="translate(1228.507812 0)"/>
     <use xlink:href="#DejaVuSans-20" transform="translate(1262.199219 0)"/>
     <use xlink:href="#DejaVuSans-30" transform="translate(1293.986328 0)"/>
     <use xlink:href="#DejaVuSans-2e" transform="translate(1357.609375 0)"/>
     <use xlink:href="#DejaVuSans-31" transform="translate(1389.396484 0)"/>
     <use xlink:href="#DejaVuSans-37" transform="translate(1453.019531 0)"/>
     <use xlink:href="#DejaVuSans-33" transform="translate(1516.642578 0)"/>
     <use xlink:href="#DejaVuSans-30" transform="translate(1580.265625 0)"/>
     <use xlink:href="#DejaVuSans-2c" transform="translate(1643.888672 0)"/>
     <use xlink:href="#DejaVuSans-20" transform="translate(1675.675781 0)"/>
     <use xlink:href="#DejaVuSans-52" transform="translate(1707.462891 0)"/>
     <use xlink:href="#DejaVuSans-b2" transform="translate(1776.945312 0)"/>
     <use xlink:href="#DejaVuSans-3a" transform="translate(1817.033203 0)"/>
     <use xlink:href="#DejaVuSans-20" transform="translate(1850.724609 0)"/>
     <use xlink:href="#DejaVuSans-30" transform="translate(1882.511719 0)"/>
     <use xlink:href="#DejaVuSans-2e" transform="translate(1946.134766 0)"/>
     <use xlink:href="#DejaVuSans-39" transform="translate(1977.921875 0)"/>
     <use xlink:href="#DejaVuSans-34" transform="translate(2041.544922 0)"/>
     <use xlink:href="#DejaVuSans-30" transform="translate(2105.167969 0)"/>
     <use xlink:href="#DejaVuSans-31" transform="translate(2168.791016 0)"/>
    </g>
   </g>
   <g id="legend_1">
    <g id="patch_7">
     <path d="M 257.384375 166.431375 
L 407.470938 166.431375 
Q 410.270938 166.431375 410.270938 163.631375 
L 410.270938 123.932625 
Q 410.270938 121.132625 407.470938 121.132625 
L 257.384375 121.132625 
Q 254.584375 121.132625 254.584375 123.932625 
L 254.584375 163.631375 
Q 254.584375 166.431375 257.384375 166.431375 
z
" style="fill: #ffffff; opacity: 0.8; stroke: #cccccc; stroke-linejoin: miter"/>
    </g>
    <g id="line2d_25">
     <path d="M 260.184375 132.470437 
L 274.184375 132.470437 
L 288.184375 132.470437 
" style="fill: none; stroke: #0000ff; stroke-width: 2; stroke-linecap: square"/>
    </g>
    <g id="text_15">
     <!-- Reference -->
     <g transform="translate(299.384375 137.370437) scale(0.14 -0.14)">
      <use xlink:href="#DejaVuSans-52"/>
      <use xlink:href="#DejaVuSans-65" transform="translate(64.982422 0)"/>
      <use xlink:href="#DejaVuSans-66" transform="translate(126.505859 0)"/>
      <use xlink:href="#DejaVuSans-65" transform="translate(161.710938 0)"/>
      <use xlink:href="#DejaVuSans-72" transform="translate(223.234375 0)"/>
      <use xlink:href="#DejaVuSans-65" transform="translate(262.097656 0)"/>
      <use xlink:href="#DejaVuSans-6e" transform="translate(323.621094 0)"/>
      <use xlink:href="#DejaVuSans-63" transform="translate(387 0)"/>
      <use xlink:href="#DejaVuSans-65" transform="translate(441.980469 0)"/>
     </g>
    </g>
    <g id="line2d_26">
     <path d="M 260.184375 153.019812 
L 274.184375 153.019812 
L 288.184375 153.019812 
" style="fill: none; stroke-dasharray: 5.55,2.4; stroke-dashoffset: 0; stroke: #ff0000; stroke-width: 1.5"/>
    </g>
    <g id="text_16">
     <!-- System Output -->
     <g transform="translate(299.384375 157.919812) scale(0.14 -0.14)">
      <defs>
       <path id="DejaVuSans-79" d="M 2059 -325 
Q 1816 -950 1584 -1140 
Q 1353 -1331 966 -1331 
L 506 -1331 
L 506 -850 
L 844 -850 
Q 1081 -850 1212 -737 
Q 1344 -625 1503 -206 
L 1606 56 
L 191 3500 
L 800 3500 
L 1894 763 
L 2988 3500 
L 3597 3500 
L 2059 -325 
z
" transform="scale(0.015625)"/>
       <path id="DejaVuSans-74" d="M 1172 4494 
L 1172 3500 
L 2356 3500 
L 2356 3053 
L 1172 3053 
L 1172 1153 
Q 1172 725 1289 603 
Q 1406 481 1766 481 
L 2356 481 
L 2356 0 
L 1766 0 
Q 1100 0 847 248 
Q 594 497 594 1153 
L 594 3053 
L 172 3053 
L 172 3500 
L 594 3500 
L 594 4494 
L 1172 4494 
z
" transform="scale(0.015625)"/>
       <path id="DejaVuSans-4f" d="M 2522 4238 
Q 1834 4238 1429 3725 
Q 1025 3213 1025 2328 
Q 1025 1447 1429 934 
Q 1834 422 2522 422 
Q 3209 422 3611 934 
Q 4013 1447 4013 2328 
Q 4013 3213 3611 3725 
Q 3209 4238 2522 4238 
z
M 2522 4750 
Q 3503 4750 4090 4092 
Q 4678 3434 4678 2328 
Q 4678 1225 4090 567 
Q 3503 -91 2522 -91 
Q 1538 -91 948 565 
Q 359 1222 359 2328 
Q 359 3434 948 4092 
Q 1538 4750 2522 4750 
z
" transform="scale(0.015625)"/>
      </defs>
      <use xlink:href="#DejaVuSans-53"/>
      <use xlink:href="#DejaVuSans-79" transform="translate(63.476562 0)"/>
      <use xlink:href="#DejaVuSans-73" transform="translate(122.65625 0)"/>
      <use xlink:href="#DejaVuSans-74" transform="translate(174.755859 0)"/>
      <use xlink:href="#DejaVuSans-65" transform="translate(213.964844 0)"/>
      <use xlink:href="#DejaVuSans-6d" transform="translate(275.488281 0)"/>
      <use xlink:href="#DejaVuSans-20" transform="translate(372.900391 0)"/>
      <use xlink:href="#DejaVuSans-4f" transform="translate(404.6875 0)"/>
      <use xlink:href="#DejaVuSans-75" transform="translate(483.398438 0)"/>
      <use xlink:href="#DejaVuSans-74" transform="translate(546.777344 0)"/>
      <use xlink:href="#DejaVuSans-70" transform="translate(585.986328 0)"/>
      <use xlink:href="#DejaVuSans-75" transform="translate(649.462891 0)"/>
      <use xlink:href="#DejaVuSans-74" transform="translate(712.841797 0)"/>
     </g>
    </g>
   </g>
  </g>
 </g>
 <defs>
  <clipPath id="pad363cec9b">
   <rect x="52.160938" y="43.274" width="365.11" height="201.016"/>
  </clipPath>
 </defs>
</svg>
