<?xml version="1.0" encoding="utf-8" standalone="no"?>
<!DOCTYPE svg PUBLIC "-//W3C//DTD SVG 1.1//EN"
  "http://www.w3.org/Graphics/SVG/1.1/DTD/svg11.dtd">
<svg xmlns:xlink="http://www.w3.org/1999/xlink" width="424.380313pt" height="281.84625pt" viewBox="0 0 424.380313 281.84625" xmlns="http://www.w3.org/2000/svg" version="1.1">
 <metadata>
  <rdf:RDF xmlns:dc="http://purl.org/dc/elements/1.1/" xmlns:cc="http://creativecommons.org/ns#" xmlns:rdf="http://www.w3.org/1999/02/22-rdf-syntax-ns#">
   <cc:Work>
    <dc:type rdf:resource="http://purl.org/dc/dcmitype/StillImage"/>
    <dc:date>2025-05-05T23:14:52.931195</dc:date>
    <dc:format>image/svg+xml</dc:format>
    <dc:creator>
     <cc:Agent>
      <dc:title>Matplotlib v3.10.0, https://matplotlib.org/</dc:title>
     </cc:Agent>
    </dc:creator>
   </cc:Work>
  </rdf:RDF>
 </metadata>
 <defs>
  <style type="text/css">*{stroke-linejoin: round; stroke-linecap: butt}</style>
 </defs>
 <g id="figure_1">
  <g id="patch_1">
   <path d="M 0 281.84625 
L 424.380313 281.84625 
L 424.380313 0 
L 0 0 
z
" style="fill: #ffffff"/>
  </g>
  <g id="axes_1">
   <g id="patch_2">
    <path d="M 42.620313 244.29 
L 417.180313 244.29 
L 417.180313 43.274 
L 42.620313 43.274 
z
" style="fill: #ffffff"/>
   </g>
   <g id="matplotlib.axis_1">
    <g id="xtick_1">
     <g id="line2d_1">
      <path d="M 59.645767 244.29 
L 59.645767 43.274 
" clip-path="url(#pe87f6a52ea)" style="fill: none; stroke: #b0b0b0; stroke-width: 0.8; stroke-linecap: square"/>
     </g>
     <g id="line2d_2">
      <defs>
       <path id="m245e8b0329" d="M 0 0 
L 0 3.5 
" style="stroke: #000000; stroke-width: 0.8"/>
      </defs>
      <g>
       <use xlink:href="#m245e8b0329" x="59.645767" y="244.29" style="stroke: #000000; stroke-width: 0.8"/>
      </g>
     </g>
     <g id="text_1">
      <!-- 0 -->
      <g transform="translate(56.464517 258.888438) scale(0.1 -0.1)">
       <defs>
        <path id="DejaVuSans-30" d="M 2034 4250 
Q 1547 4250 1301 3770 
Q 1056 3291 1056 2328 
Q 1056 1369 1301 889 
Q 1547 409 2034 409 
Q 2525 409 2770 889 
Q 3016 1369 3016 2328 
Q 3016 3291 2770 3770 
Q 2525 4250 2034 4250 
z
M 2034 4750 
Q 2819 4750 3233 4129 
Q 3647 3509 3647 2328 
Q 3647 1150 3233 529 
Q 2819 -91 2034 -91 
Q 1250 -91 836 529 
Q 422 1150 422 2328 
Q 422 3509 836 4129 
Q 1250 4750 2034 4750 
z
" transform="scale(0.015625)"/>
       </defs>
       <use xlink:href="#DejaVuSans-30"/>
      </g>
     </g>
    </g>
    <g id="xtick_2">
     <g id="line2d_3">
      <path d="M 127.884062 244.29 
L 127.884062 43.274 
" clip-path="url(#pe87f6a52ea)" style="fill: none; stroke: #b0b0b0; stroke-width: 0.8; stroke-linecap: square"/>
     </g>
     <g id="line2d_4">
      <g>
       <use xlink:href="#m245e8b0329" x="127.884062" y="244.29" style="stroke: #000000; stroke-width: 0.8"/>
      </g>
     </g>
     <g id="text_2">
      <!-- 100 -->
      <g transform="translate(118.340312 258.888438) scale(0.1 -0.1)">
       <defs>
        <path id="DejaVuSans-31" d="M 794 531 
L 1825 531 
L 1825 4091 
L 703 3866 
L 703 4441 
L 1819 4666 
L 2450 4666 
L 2450 531 
L 3481 531 
L 3481 0 
L 794 0 
L 794 531 
z
" transform="scale(0.015625)"/>
       </defs>
       <use xlink:href="#DejaVuSans-31"/>
       <use xlink:href="#DejaVuSans-30" transform="translate(63.623047 0)"/>
       <use xlink:href="#DejaVuSans-30" transform="translate(127.246094 0)"/>
      </g>
     </g>
    </g>
    <g id="xtick_3">
     <g id="line2d_5">
      <path d="M 196.122357 244.29 
L 196.122357 43.274 
" clip-path="url(#pe87f6a52ea)" style="fill: none; stroke: #b0b0b0; stroke-width: 0.8; stroke-linecap: square"/>
     </g>
     <g id="line2d_6">
      <g>
       <use xlink:href="#m245e8b0329" x="196.122357" y="244.29" style="stroke: #000000; stroke-width: 0.8"/>
      </g>
     </g>
     <g id="text_3">
      <!-- 200 -->
      <g transform="translate(186.578607 258.888438) scale(0.1 -0.1)">
       <defs>
        <path id="DejaVuSans-32" d="M 1228 531 
L 3431 531 
L 3431 0 
L 469 0 
L 469 531 
Q 828 903 1448 1529 
Q 2069 2156 2228 2338 
Q 2531 2678 2651 2914 
Q 2772 3150 2772 3378 
Q 2772 3750 2511 3984 
Q 2250 4219 1831 4219 
Q 1534 4219 1204 4116 
Q 875 4013 500 3803 
L 500 4441 
Q 881 4594 1212 4672 
Q 1544 4750 1819 4750 
Q 2544 4750 2975 4387 
Q 3406 4025 3406 3419 
Q 3406 3131 3298 2873 
Q 3191 2616 2906 2266 
Q 2828 2175 2409 1742 
Q 1991 1309 1228 531 
z
" transform="scale(0.015625)"/>
       </defs>
       <use xlink:href="#DejaVuSans-32"/>
       <use xlink:href="#DejaVuSans-30" transform="translate(63.623047 0)"/>
       <use xlink:href="#DejaVuSans-30" transform="translate(127.246094 0)"/>
      </g>
     </g>
    </g>
    <g id="xtick_4">
     <g id="line2d_7">
      <path d="M 264.360651 244.29 
L 264.360651 43.274 
" clip-path="url(#pe87f6a52ea)" style="fill: none; stroke: #b0b0b0; stroke-width: 0.8; stroke-linecap: square"/>
     </g>
     <g id="line2d_8">
      <g>
       <use xlink:href="#m245e8b0329" x="264.360651" y="244.29" style="stroke: #000000; stroke-width: 0.8"/>
      </g>
     </g>
     <g id="text_4">
      <!-- 300 -->
      <g transform="translate(254.816901 258.888438) scale(0.1 -0.1)">
       <defs>
        <path id="DejaVuSans-33" d="M 2597 2516 
Q 3050 2419 3304 2112 
Q 3559 1806 3559 1356 
Q 3559 666 3084 287 
Q 2609 -91 1734 -91 
Q 1441 -91 1130 -33 
Q 819 25 488 141 
L 488 750 
Q 750 597 1062 519 
Q 1375 441 1716 441 
Q 2309 441 2620 675 
Q 2931 909 2931 1356 
Q 2931 1769 2642 2001 
Q 2353 2234 1838 2234 
L 1294 2234 
L 1294 2753 
L 1863 2753 
Q 2328 2753 2575 2939 
Q 2822 3125 2822 3475 
Q 2822 3834 2567 4026 
Q 2313 4219 1838 4219 
Q 1578 4219 1281 4162 
Q 984 4106 628 3988 
L 628 4550 
Q 988 4650 1302 4700 
Q 1616 4750 1894 4750 
Q 2613 4750 3031 4423 
Q 3450 4097 3450 3541 
Q 3450 3153 3228 2886 
Q 3006 2619 2597 2516 
z
" transform="scale(0.015625)"/>
       </defs>
       <use xlink:href="#DejaVuSans-33"/>
       <use xlink:href="#DejaVuSans-30" transform="translate(63.623047 0)"/>
       <use xlink:href="#DejaVuSans-30" transform="translate(127.246094 0)"/>
      </g>
     </g>
    </g>
    <g id="xtick_5">
     <g id="line2d_9">
      <path d="M 332.598946 244.29 
L 332.598946 43.274 
" clip-path="url(#pe87f6a52ea)" style="fill: none; stroke: #b0b0b0; stroke-width: 0.8; stroke-linecap: square"/>
     </g>
     <g id="line2d_10">
      <g>
       <use xlink:href="#m245e8b0329" x="332.598946" y="244.29" style="stroke: #000000; stroke-width: 0.8"/>
      </g>
     </g>
     <g id="text_5">
      <!-- 400 -->
      <g transform="translate(323.055196 258.888438) scale(0.1 -0.1)">
       <defs>
        <path id="DejaVuSans-34" d="M 2419 4116 
L 825 1625 
L 2419 1625 
L 2419 4116 
z
M 2253 4666 
L 3047 4666 
L 3047 1625 
L 3713 1625 
L 3713 1100 
L 3047 1100 
L 3047 0 
L 2419 0 
L 2419 1100 
L 313 1100 
L 313 1709 
L 2253 4666 
z
" transform="scale(0.015625)"/>
       </defs>
       <use xlink:href="#DejaVuSans-34"/>
       <use xlink:href="#DejaVuSans-30" transform="translate(63.623047 0)"/>
       <use xlink:href="#DejaVuSans-30" transform="translate(127.246094 0)"/>
      </g>
     </g>
    </g>
    <g id="xtick_6">
     <g id="line2d_11">
      <path d="M 400.837241 244.29 
L 400.837241 43.274 
" clip-path="url(#pe87f6a52ea)" style="fill: none; stroke: #b0b0b0; stroke-width: 0.8; stroke-linecap: square"/>
     </g>
     <g id="line2d_12">
      <g>
       <use xlink:href="#m245e8b0329" x="400.837241" y="244.29" style="stroke: #000000; stroke-width: 0.8"/>
      </g>
     </g>
     <g id="text_6">
      <!-- 500 -->
      <g transform="translate(391.293491 258.888438) scale(0.1 -0.1)">
       <defs>
        <path id="DejaVuSans-35" d="M 691 4666 
L 3169 4666 
L 3169 4134 
L 1269 4134 
L 1269 2991 
Q 1406 3038 1543 3061 
Q 1681 3084 1819 3084 
Q 2600 3084 3056 2656 
Q 3513 2228 3513 1497 
Q 3513 744 3044 326 
Q 2575 -91 1722 -91 
Q 1428 -91 1123 -41 
Q 819 9 494 109 
L 494 744 
Q 775 591 1075 516 
Q 1375 441 1709 441 
Q 2250 441 2565 725 
Q 2881 1009 2881 1497 
Q 2881 1984 2565 2268 
Q 2250 2553 1709 2553 
Q 1456 2553 1204 2497 
Q 953 2441 691 2322 
L 691 4666 
z
" transform="scale(0.015625)"/>
       </defs>
       <use xlink:href="#DejaVuSans-35"/>
       <use xlink:href="#DejaVuSans-30" transform="translate(63.623047 0)"/>
       <use xlink:href="#DejaVuSans-30" transform="translate(127.246094 0)"/>
      </g>
     </g>
    </g>
    <g id="text_7">
     <!-- Samples -->
     <g transform="translate(208.547188 272.566562) scale(0.1 -0.1)">
      <defs>
       <path id="DejaVuSans-53" d="M 3425 4513 
L 3425 3897 
Q 3066 4069 2747 4153 
Q 2428 4238 2131 4238 
Q 1616 4238 1336 4038 
Q 1056 3838 1056 3469 
Q 1056 3159 1242 3001 
Q 1428 2844 1947 2747 
L 2328 2669 
Q 3034 2534 3370 2195 
Q 3706 1856 3706 1288 
Q 3706 609 3251 259 
Q 2797 -91 1919 -91 
Q 1588 -91 1214 -16 
Q 841 59 441 206 
L 441 856 
Q 825 641 1194 531 
Q 1563 422 1919 422 
Q 2459 422 2753 634 
Q 3047 847 3047 1241 
Q 3047 1584 2836 1778 
Q 2625 1972 2144 2069 
L 1759 2144 
Q 1053 2284 737 2584 
Q 422 2884 422 3419 
Q 422 4038 858 4394 
Q 1294 4750 2059 4750 
Q 2388 4750 2728 4690 
Q 3069 4631 3425 4513 
z
" transform="scale(0.015625)"/>
       <path id="DejaVuSans-61" d="M 2194 1759 
Q 1497 1759 1228 1600 
Q 959 1441 959 1056 
Q 959 750 1161 570 
Q 1363 391 1709 391 
Q 2188 391 2477 730 
Q 2766 1069 2766 1631 
L 2766 1759 
L 2194 1759 
z
M 3341 1997 
L 3341 0 
L 2766 0 
L 2766 531 
Q 2569 213 2275 61 
Q 1981 -91 1556 -91 
Q 1019 -91 701 211 
Q 384 513 384 1019 
Q 384 1609 779 1909 
Q 1175 2209 1959 2209 
L 2766 2209 
L 2766 2266 
Q 2766 2663 2505 2880 
Q 2244 3097 1772 3097 
Q 1472 3097 1187 3025 
Q 903 2953 641 2809 
L 641 3341 
Q 956 3463 1253 3523 
Q 1550 3584 1831 3584 
Q 2591 3584 2966 3190 
Q 3341 2797 3341 1997 
z
" transform="scale(0.015625)"/>
       <path id="DejaVuSans-6d" d="M 3328 2828 
Q 3544 3216 3844 3400 
Q 4144 3584 4550 3584 
Q 5097 3584 5394 3201 
Q 5691 2819 5691 2113 
L 5691 0 
L 5113 0 
L 5113 2094 
Q 5113 2597 4934 2840 
Q 4756 3084 4391 3084 
Q 3944 3084 3684 2787 
Q 3425 2491 3425 1978 
L 3425 0 
L 2847 0 
L 2847 2094 
Q 2847 2600 2669 2842 
Q 2491 3084 2119 3084 
Q 1678 3084 1418 2786 
Q 1159 2488 1159 1978 
L 1159 0 
L 581 0 
L 581 3500 
L 1159 3500 
L 1159 2956 
Q 1356 3278 1631 3431 
Q 1906 3584 2284 3584 
Q 2666 3584 2933 3390 
Q 3200 3197 3328 2828 
z
" transform="scale(0.015625)"/>
       <path id="DejaVuSans-70" d="M 1159 525 
L 1159 -1331 
L 581 -1331 
L 581 3500 
L 1159 3500 
L 1159 2969 
Q 1341 3281 1617 3432 
Q 1894 3584 2278 3584 
Q 2916 3584 3314 3078 
Q 3713 2572 3713 1747 
Q 3713 922 3314 415 
Q 2916 -91 2278 -91 
Q 1894 -91 1617 61 
Q 1341 213 1159 525 
z
M 3116 1747 
Q 3116 2381 2855 2742 
Q 2594 3103 2138 3103 
Q 1681 3103 1420 2742 
Q 1159 2381 1159 1747 
Q 1159 1113 1420 752 
Q 1681 391 2138 391 
Q 2594 391 2855 752 
Q 3116 1113 3116 1747 
z
" transform="scale(0.015625)"/>
       <path id="DejaVuSans-6c" d="M 603 4863 
L 1178 4863 
L 1178 0 
L 603 0 
L 603 4863 
z
" transform="scale(0.015625)"/>
       <path id="DejaVuSans-65" d="M 3597 1894 
L 3597 1613 
L 953 1613 
Q 991 1019 1311 708 
Q 1631 397 2203 397 
Q 2534 397 2845 478 
Q 3156 559 3463 722 
L 3463 178 
Q 3153 47 2828 -22 
Q 2503 -91 2169 -91 
Q 1331 -91 842 396 
Q 353 884 353 1716 
Q 353 2575 817 3079 
Q 1281 3584 2069 3584 
Q 2775 3584 3186 3129 
Q 3597 2675 3597 1894 
z
M 3022 2063 
Q 3016 2534 2758 2815 
Q 2500 3097 2075 3097 
Q 1594 3097 1305 2825 
Q 1016 2553 972 2059 
L 3022 2063 
z
" transform="scale(0.015625)"/>
       <path id="DejaVuSans-73" d="M 2834 3397 
L 2834 2853 
Q 2591 2978 2328 3040 
Q 2066 3103 1784 3103 
Q 1356 3103 1142 2972 
Q 928 2841 928 2578 
Q 928 2378 1081 2264 
Q 1234 2150 1697 2047 
L 1894 2003 
Q 2506 1872 2764 1633 
Q 3022 1394 3022 966 
Q 3022 478 2636 193 
Q 2250 -91 1575 -91 
Q 1294 -91 989 -36 
Q 684 19 347 128 
L 347 722 
Q 666 556 975 473 
Q 1284 391 1588 391 
Q 1994 391 2212 530 
Q 2431 669 2431 922 
Q 2431 1156 2273 1281 
Q 2116 1406 1581 1522 
L 1381 1569 
Q 847 1681 609 1914 
Q 372 2147 372 2553 
Q 372 3047 722 3315 
Q 1072 3584 1716 3584 
Q 2034 3584 2315 3537 
Q 2597 3491 2834 3397 
z
" transform="scale(0.015625)"/>
      </defs>
      <use xlink:href="#DejaVuSans-53"/>
      <use xlink:href="#DejaVuSans-61" transform="translate(63.476562 0)"/>
      <use xlink:href="#DejaVuSans-6d" transform="translate(124.755859 0)"/>
      <use xlink:href="#DejaVuSans-70" transform="translate(222.167969 0)"/>
      <use xlink:href="#DejaVuSans-6c" transform="translate(285.644531 0)"/>
      <use xlink:href="#DejaVuSans-65" transform="translate(313.427734 0)"/>
      <use xlink:href="#DejaVuSans-73" transform="translate(374.951172 0)"/>
     </g>
    </g>
   </g>
   <g id="matplotlib.axis_2">
    <g id="ytick_1">
     <g id="line2d_13">
      <path d="M 42.620313 216.488155 
L 417.180313 216.488155 
" clip-path="url(#pe87f6a52ea)" style="fill: none; stroke: #b0b0b0; stroke-width: 0.8; stroke-linecap: square"/>
     </g>
     <g id="line2d_14">
      <defs>
       <path id="m407483d8cf" d="M 0 0 
L -3.5 0 
" style="stroke: #000000; stroke-width: 0.8"/>
      </defs>
      <g>
       <use xlink:href="#m407483d8cf" x="42.620313" y="216.488155" style="stroke: #000000; stroke-width: 0.8"/>
      </g>
     </g>
     <g id="text_8">
      <!-- −2 -->
      <g transform="translate(20.878125 220.287374) scale(0.1 -0.1)">
       <defs>
        <path id="DejaVuSans-2212" d="M 678 2272 
L 4684 2272 
L 4684 1741 
L 678 1741 
L 678 2272 
z
" transform="scale(0.015625)"/>
       </defs>
       <use xlink:href="#DejaVuSans-2212"/>
       <use xlink:href="#DejaVuSans-32" transform="translate(83.789062 0)"/>
      </g>
     </g>
    </g>
    <g id="ytick_2">
     <g id="line2d_15">
      <path d="M 42.620313 182.644932 
L 417.180313 182.644932 
" clip-path="url(#pe87f6a52ea)" style="fill: none; stroke: #b0b0b0; stroke-width: 0.8; stroke-linecap: square"/>
     </g>
     <g id="line2d_16">
      <g>
       <use xlink:href="#m407483d8cf" x="42.620313" y="182.644932" style="stroke: #000000; stroke-width: 0.8"/>
      </g>
     </g>
     <g id="text_9">
      <!-- −1 -->
      <g transform="translate(20.878125 186.444151) scale(0.1 -0.1)">
       <use xlink:href="#DejaVuSans-2212"/>
       <use xlink:href="#DejaVuSans-31" transform="translate(83.789062 0)"/>
      </g>
     </g>
    </g>
    <g id="ytick_3">
     <g id="line2d_17">
      <path d="M 42.620313 148.80171 
L 417.180313 148.80171 
" clip-path="url(#pe87f6a52ea)" style="fill: none; stroke: #b0b0b0; stroke-width: 0.8; stroke-linecap: square"/>
     </g>
     <g id="line2d_18">
      <g>
       <use xlink:href="#m407483d8cf" x="42.620313" y="148.80171" style="stroke: #000000; stroke-width: 0.8"/>
      </g>
     </g>
     <g id="text_10">
      <!-- 0 -->
      <g transform="translate(29.257813 152.600928) scale(0.1 -0.1)">
       <use xlink:href="#DejaVuSans-30"/>
      </g>
     </g>
    </g>
    <g id="ytick_4">
     <g id="line2d_19">
      <path d="M 42.620313 114.958487 
L 417.180313 114.958487 
" clip-path="url(#pe87f6a52ea)" style="fill: none; stroke: #b0b0b0; stroke-width: 0.8; stroke-linecap: square"/>
     </g>
     <g id="line2d_20">
      <g>
       <use xlink:href="#m407483d8cf" x="42.620313" y="114.958487" style="stroke: #000000; stroke-width: 0.8"/>
      </g>
     </g>
     <g id="text_11">
      <!-- 1 -->
      <g transform="translate(29.257813 118.757706) scale(0.1 -0.1)">
       <use xlink:href="#DejaVuSans-31"/>
      </g>
     </g>
    </g>
    <g id="ytick_5">
     <g id="line2d_21">
      <path d="M 42.620313 81.115264 
L 417.180313 81.115264 
" clip-path="url(#pe87f6a52ea)" style="fill: none; stroke: #b0b0b0; stroke-width: 0.8; stroke-linecap: square"/>
     </g>
     <g id="line2d_22">
      <g>
       <use xlink:href="#m407483d8cf" x="42.620313" y="81.115264" style="stroke: #000000; stroke-width: 0.8"/>
      </g>
     </g>
     <g id="text_12">
      <!-- 2 -->
      <g transform="translate(29.257813 84.914483) scale(0.1 -0.1)">
       <use xlink:href="#DejaVuSans-32"/>
      </g>
     </g>
    </g>
    <g id="ytick_6">
     <g id="line2d_23">
      <path d="M 42.620313 47.272042 
L 417.180313 47.272042 
" clip-path="url(#pe87f6a52ea)" style="fill: none; stroke: #b0b0b0; stroke-width: 0.8; stroke-linecap: square"/>
     </g>
     <g id="line2d_24">
      <g>
       <use xlink:href="#m407483d8cf" x="42.620313" y="47.272042" style="stroke: #000000; stroke-width: 0.8"/>
      </g>
     </g>
     <g id="text_13">
      <!-- 3 -->
      <g transform="translate(29.257813 51.07126) scale(0.1 -0.1)">
       <use xlink:href="#DejaVuSans-33"/>
      </g>
     </g>
    </g>
    <g id="text_14">
     <!-- Signal Value -->
     <g transform="translate(14.798438 174.461687) rotate(-90) scale(0.1 -0.1)">
      <defs>
       <path id="DejaVuSans-69" d="M 603 3500 
L 1178 3500 
L 1178 0 
L 603 0 
L 603 3500 
z
M 603 4863 
L 1178 4863 
L 1178 4134 
L 603 4134 
L 603 4863 
z
" transform="scale(0.015625)"/>
       <path id="DejaVuSans-67" d="M 2906 1791 
Q 2906 2416 2648 2759 
Q 2391 3103 1925 3103 
Q 1463 3103 1205 2759 
Q 947 2416 947 1791 
Q 947 1169 1205 825 
Q 1463 481 1925 481 
Q 2391 481 2648 825 
Q 2906 1169 2906 1791 
z
M 3481 434 
Q 3481 -459 3084 -895 
Q 2688 -1331 1869 -1331 
Q 1566 -1331 1297 -1286 
Q 1028 -1241 775 -1147 
L 775 -588 
Q 1028 -725 1275 -790 
Q 1522 -856 1778 -856 
Q 2344 -856 2625 -561 
Q 2906 -266 2906 331 
L 2906 616 
Q 2728 306 2450 153 
Q 2172 0 1784 0 
Q 1141 0 747 490 
Q 353 981 353 1791 
Q 353 2603 747 3093 
Q 1141 3584 1784 3584 
Q 2172 3584 2450 3431 
Q 2728 3278 2906 2969 
L 2906 3500 
L 3481 3500 
L 3481 434 
z
" transform="scale(0.015625)"/>
       <path id="DejaVuSans-6e" d="M 3513 2113 
L 3513 0 
L 2938 0 
L 2938 2094 
Q 2938 2591 2744 2837 
Q 2550 3084 2163 3084 
Q 1697 3084 1428 2787 
Q 1159 2491 1159 1978 
L 1159 0 
L 581 0 
L 581 3500 
L 1159 3500 
L 1159 2956 
Q 1366 3272 1645 3428 
Q 1925 3584 2291 3584 
Q 2894 3584 3203 3211 
Q 3513 2838 3513 2113 
z
" transform="scale(0.015625)"/>
       <path id="DejaVuSans-20" transform="scale(0.015625)"/>
       <path id="DejaVuSans-56" d="M 1831 0 
L 50 4666 
L 709 4666 
L 2188 738 
L 3669 4666 
L 4325 4666 
L 2547 0 
L 1831 0 
z
" transform="scale(0.015625)"/>
       <path id="DejaVuSans-75" d="M 544 1381 
L 544 3500 
L 1119 3500 
L 1119 1403 
Q 1119 906 1312 657 
Q 1506 409 1894 409 
Q 2359 409 2629 706 
Q 2900 1003 2900 1516 
L 2900 3500 
L 3475 3500 
L 3475 0 
L 2900 0 
L 2900 538 
Q 2691 219 2414 64 
Q 2138 -91 1772 -91 
Q 1169 -91 856 284 
Q 544 659 544 1381 
z
M 1991 3584 
L 1991 3584 
z
" transform="scale(0.015625)"/>
      </defs>
      <use xlink:href="#DejaVuSans-53"/>
      <use xlink:href="#DejaVuSans-69" transform="translate(63.476562 0)"/>
      <use xlink:href="#DejaVuSans-67" transform="translate(91.259766 0)"/>
      <use xlink:href="#DejaVuSans-6e" transform="translate(154.736328 0)"/>
      <use xlink:href="#DejaVuSans-61" transform="translate(218.115234 0)"/>
      <use xlink:href="#DejaVuSans-6c" transform="translate(279.394531 0)"/>
      <use xlink:href="#DejaVuSans-20" transform="translate(307.177734 0)"/>
      <use xlink:href="#DejaVuSans-56" transform="translate(338.964844 0)"/>
      <use xlink:href="#DejaVuSans-61" transform="translate(399.623047 0)"/>
      <use xlink:href="#DejaVuSans-6c" transform="translate(460.902344 0)"/>
      <use xlink:href="#DejaVuSans-75" transform="translate(488.685547 0)"/>
      <use xlink:href="#DejaVuSans-65" transform="translate(552.064453 0)"/>
     </g>
    </g>
   </g>
   <g id="line2d_25">
    <path d="M 59.645767 115.445304 
L 60.32815 115.638087 
L 61.010533 115.064671 
L 61.692916 114.849544 
L 62.375299 115.007355 
L 63.057682 114.982038 
L 63.740065 114.782547 
L 64.422448 114.136146 
L 65.104831 114.823526 
L 65.787214 115.25122 
L 66.469597 115.086112 
L 67.151979 115.112516 
L 67.834362 115.413846 
L 68.516745 114.803699 
L 69.199128 115.073336 
L 70.563894 114.504274 
L 71.246277 115.569979 
L 73.293426 114.916004 
L 74.658192 114.7802 
L 75.340575 114.454041 
L 76.022958 114.660996 
L 76.705341 114.706282 
L 77.387724 114.63821 
L 78.070107 114.259124 
L 78.75249 115.224226 
L 80.117255 115.170462 
L 80.799638 114.27201 
L 81.482021 114.723912 
L 82.164404 114.946144 
L 82.846787 114.811751 
L 83.52917 114.476066 
L 84.893936 115.315137 
L 85.576319 115.30446 
L 86.258702 114.817603 
L 86.941085 114.922199 
L 87.623468 115.203155 
L 88.305851 115.272488 
L 88.988234 115.091186 
L 89.670617 114.529638 
L 90.353 115.113408 
L 91.035383 115.167038 
L 91.717766 115.031746 
L 92.400149 115.17075 
L 93.082531 115.798933 
L 93.764914 115.097891 
L 94.447297 115.321076 
L 95.12968 114.753617 
L 95.812063 114.527888 
L 96.494446 115.130157 
L 97.176829 114.735422 
L 97.859212 115.258662 
L 98.541595 115.110152 
L 99.223978 114.54791 
L 101.271127 115.241379 
L 101.95351 114.577254 
L 102.635893 114.816838 
L 103.318276 115.345987 
L 104.683042 114.585974 
L 105.365425 114.525291 
L 106.047807 114.65632 
L 106.73019 115.199196 
L 107.412573 114.880785 
L 108.777339 114.925214 
L 109.459722 115.357313 
L 110.142105 114.807803 
L 110.824488 114.989065 
L 111.506871 115.346488 
L 112.871637 114.928609 
L 113.55402 115.138453 
L 114.236403 114.789275 
L 114.918786 115.089952 
L 115.601169 114.474863 
L 116.283552 114.980142 
L 117.648318 115.440643 
L 118.330701 114.639066 
L 119.013083 115.067549 
L 119.695466 114.811831 
L 121.060232 114.831425 
L 121.742615 114.729551 
L 122.424998 114.370894 
L 123.107381 114.840632 
L 123.789764 114.533563 
L 124.472147 115.443646 
L 125.836913 114.489648 
L 126.519296 114.770753 
L 127.201679 114.266265 
L 127.884062 182.860418 
L 128.566445 183.011102 
L 129.248828 182.581674 
L 129.931211 183.074779 
L 130.613594 182.511215 
L 131.295977 183.236869 
L 131.97836 182.666162 
L 132.660742 182.908354 
L 133.343125 182.680777 
L 134.707891 182.904863 
L 135.390274 182.077611 
L 136.072657 182.626541 
L 136.75504 182.892746 
L 138.802189 182.994956 
L 139.484572 182.874019 
L 140.166955 182.251851 
L 140.849338 182.270381 
L 141.531721 182.779282 
L 142.214104 182.536987 
L 142.896487 182.893596 
L 143.57887 182.168208 
L 144.261253 182.142849 
L 144.943636 182.91394 
L 145.626018 182.638467 
L 146.308401 182.527576 
L 147.673167 182.618424 
L 148.35555 183.064793 
L 149.037933 182.470167 
L 150.402699 182.896315 
L 151.085082 182.507171 
L 152.449848 182.950729 
L 153.132231 182.437016 
L 153.814614 182.933375 
L 154.496997 182.630564 
L 155.17938 182.73649 
L 155.861763 182.364226 
L 156.544146 182.698575 
L 157.226529 182.050779 
L 157.908912 183.106341 
L 158.591294 182.738483 
L 159.273677 182.235581 
L 159.95606 182.830296 
L 160.638443 182.55341 
L 162.003209 182.477987 
L 162.685592 182.649814 
L 163.367975 183.220714 
L 164.732741 181.915829 
L 165.415124 183.222268 
L 167.462273 182.656054 
L 168.144656 182.739109 
L 170.191805 182.275049 
L 170.874188 182.779866 
L 171.55657 182.369137 
L 172.238953 183.042098 
L 173.603719 182.353756 
L 174.286102 182.812575 
L 174.968485 182.29976 
L 175.650868 182.355041 
L 176.333251 182.797789 
L 177.015634 182.525691 
L 177.698017 182.577967 
L 178.3804 182.807565 
L 179.745166 182.255704 
L 180.427549 182.243972 
L 181.109932 182.905277 
L 182.474698 182.275076 
L 183.157081 182.230443 
L 183.839464 182.712 
L 184.521846 182.894221 
L 185.204229 182.606967 
L 185.886612 183.067656 
L 186.568995 182.536009 
L 187.251378 182.475336 
L 187.933761 183.10445 
L 188.616144 182.817003 
L 189.298527 182.97621 
L 189.98091 182.975861 
L 190.663293 182.751477 
L 191.345676 182.329977 
L 192.028059 182.277714 
L 192.710442 182.858836 
L 193.392825 182.189717 
L 194.075208 182.322288 
L 194.757591 182.113293 
L 195.439974 182.396634 
L 196.122357 114.61046 
L 196.80474 114.367872 
L 197.487122 114.69438 
L 198.169505 114.821171 
L 199.534271 115.392425 
L 200.216654 114.898972 
L 200.899037 115.063622 
L 202.263803 114.754739 
L 203.628569 115.376671 
L 204.310952 114.807649 
L 204.993335 113.981185 
L 205.675718 114.649332 
L 206.358101 114.52163 
L 207.040484 115.611726 
L 207.722867 114.902782 
L 209.087633 115.039809 
L 209.770016 114.707944 
L 210.452398 115.099265 
L 211.134781 114.754879 
L 211.817164 115.195599 
L 212.499547 115.016944 
L 213.18193 115.350747 
L 213.864313 114.52701 
L 214.546696 114.704569 
L 215.911462 114.364236 
L 216.593845 115.402238 
L 217.276228 114.827511 
L 217.958611 115.440712 
L 218.640994 114.706448 
L 219.323377 115.311932 
L 220.00576 114.97723 
L 220.688143 115.1378 
L 221.370526 114.791788 
L 222.052909 114.752865 
L 222.735292 115.365024 
L 223.417674 114.850627 
L 224.100057 115.017269 
L 224.78244 115.007224 
L 225.464823 114.659289 
L 226.147206 115.096281 
L 226.829589 114.685011 
L 227.511972 115.335805 
L 228.194355 115.292 
L 228.876738 115.037822 
L 229.559121 115.716672 
L 230.241504 114.634777 
L 230.923887 115.558338 
L 231.60627 115.046431 
L 232.288653 114.967353 
L 232.971036 115.187494 
L 233.653419 113.84795 
L 234.335802 114.648441 
L 235.018185 115.134626 
L 235.700568 114.799919 
L 236.382951 114.942677 
L 237.065333 115.428683 
L 237.747716 114.936262 
L 238.430099 114.832669 
L 239.112482 114.604669 
L 239.794865 114.74759 
L 240.477248 115.113575 
L 241.159631 114.758557 
L 241.842014 114.973003 
L 242.524397 115.378219 
L 243.889163 115.007222 
L 245.253929 115.312989 
L 245.936312 114.47828 
L 246.618695 115.005556 
L 247.301078 115.374691 
L 248.665844 115.34769 
L 249.348227 115.35867 
L 250.030609 115.496715 
L 251.395375 114.589304 
L 252.077758 115.026679 
L 253.442524 114.339795 
L 254.80729 115.106905 
L 255.489673 114.555715 
L 256.172056 115.03979 
L 256.854439 115.157572 
L 257.536822 114.383566 
L 258.219205 114.588819 
L 258.901588 114.988504 
L 259.583971 115.114871 
L 260.266354 114.75689 
L 260.948737 115.201858 
L 261.63112 114.759356 
L 262.313503 115.502066 
L 262.995885 114.797327 
L 263.678268 114.890905 
L 264.360651 183.076496 
L 265.043034 183.11506 
L 265.725417 181.979789 
L 266.4078 182.822648 
L 267.090183 182.397153 
L 267.772566 183.461203 
L 268.454949 182.558707 
L 270.502098 182.250293 
L 271.866864 183.003851 
L 272.549247 182.46064 
L 273.23163 182.257755 
L 273.914013 181.815357 
L 274.596396 182.846107 
L 275.961161 182.007498 
L 276.643544 182.56416 
L 277.325927 182.239038 
L 278.00831 182.760609 
L 278.690693 182.552303 
L 279.373076 182.868173 
L 280.737842 182.911277 
L 281.420225 182.543265 
L 282.102608 182.458366 
L 282.784991 183.243445 
L 283.467374 182.772514 
L 284.149757 182.665909 
L 284.83214 182.133995 
L 285.514523 183.364945 
L 286.196906 182.31042 
L 286.879289 182.729343 
L 287.561672 182.37133 
L 288.244055 182.274172 
L 288.926437 182.969013 
L 289.60882 182.942413 
L 290.291203 183.169614 
L 290.973586 182.101763 
L 291.655969 182.945035 
L 292.338352 182.708204 
L 293.020735 182.899234 
L 295.067884 182.436473 
L 295.750267 182.854246 
L 296.43265 182.444915 
L 297.115033 182.788603 
L 298.479799 182.310751 
L 299.162182 182.585235 
L 299.844565 182.657061 
L 300.526948 182.434016 
L 301.891713 183.093145 
L 302.574096 182.44559 
L 303.256479 182.684961 
L 303.938862 183.257001 
L 304.621245 182.465189 
L 305.303628 182.439202 
L 306.668394 182.645048 
L 307.350777 182.625751 
L 308.03316 182.827545 
L 308.715543 182.462754 
L 309.397926 182.687748 
L 311.445075 182.461527 
L 312.127458 182.872493 
L 312.809841 182.923553 
L 313.492224 182.406533 
L 314.174607 183.226366 
L 314.856989 183.063798 
L 315.539372 182.344251 
L 316.221755 182.193053 
L 316.904138 183.207301 
L 318.268904 182.41012 
L 318.951287 182.929499 
L 319.63367 183.117602 
L 320.316053 183.423983 
L 320.998436 182.366997 
L 321.680819 182.817165 
L 322.363202 182.469989 
L 323.045585 182.93674 
L 324.410351 182.702587 
L 325.092734 182.379902 
L 325.775117 182.418645 
L 326.4575 183.005795 
L 327.139883 183.071957 
L 327.822265 182.616177 
L 329.187031 183.151533 
L 329.869414 182.580988 
L 330.551797 182.794498 
L 331.23418 182.21973 
L 331.916563 182.746326 
L 332.598946 115.096243 
L 333.281329 115.006549 
L 333.963712 114.774894 
L 334.646095 115.45488 
L 335.328478 115.123119 
L 337.375627 114.899396 
L 338.05801 115.210685 
L 338.740393 114.536658 
L 339.422776 114.82532 
L 340.105159 114.383831 
L 340.787542 114.893061 
L 341.469924 115.109166 
L 342.152307 114.682575 
L 342.83469 114.66899 
L 343.517073 115.423758 
L 344.199456 115.039164 
L 344.881839 114.970779 
L 345.564222 115.648335 
L 346.246605 114.560573 
L 346.928988 115.219025 
L 347.611371 114.359831 
L 348.293754 114.768799 
L 348.976137 114.653474 
L 349.65852 115.071161 
L 350.340903 115.345087 
L 351.023286 115.235529 
L 351.705669 114.811256 
L 352.388052 115.306436 
L 353.070435 114.94221 
L 353.752818 115.380352 
L 354.4352 115.324571 
L 355.117583 114.919001 
L 355.799966 114.299568 
L 356.482349 114.792135 
L 357.164732 114.704315 
L 357.847115 114.948586 
L 358.529498 114.801526 
L 359.211881 115.066686 
L 359.894264 114.85286 
L 360.576647 115.406603 
L 361.25903 114.798256 
L 361.941413 115.385372 
L 362.623796 114.598725 
L 363.306179 115.226131 
L 363.988562 115.470498 
L 364.670945 115.141766 
L 365.353328 114.95171 
L 366.035711 114.551364 
L 366.718094 114.754444 
L 367.400476 115.248213 
L 368.082859 115.303574 
L 368.765242 114.731275 
L 369.447625 114.339926 
L 370.130008 114.3951 
L 370.812391 114.57436 
L 371.494774 115.029719 
L 372.177157 114.609478 
L 372.85954 115.43598 
L 373.541923 115.224213 
L 374.224306 114.86937 
L 374.906689 115.314565 
L 375.589072 115.240017 
L 376.271455 114.939216 
L 377.636221 115.216222 
L 378.318604 114.69702 
L 379.000987 115.124099 
L 379.68337 115.195095 
L 380.365752 114.889984 
L 381.730518 115.094974 
L 382.412901 114.848773 
L 383.095284 115.387706 
L 384.46005 115.21244 
L 385.142433 114.654063 
L 387.189582 114.996459 
L 387.871965 114.130304 
L 388.554348 115.284164 
L 389.236731 114.576393 
L 389.919114 114.470963 
L 390.601497 114.749003 
L 391.28388 115.842808 
L 391.966263 115.149376 
L 393.331028 115.089557 
L 394.013411 115.526412 
L 394.695794 115.457441 
L 395.378177 114.611053 
L 396.06056 115.094867 
L 396.742943 115.288257 
L 397.425326 114.889671 
L 398.790092 114.698783 
L 399.472475 115.202892 
L 400.154858 182.639696 
L 400.154858 182.639696 
" clip-path="url(#pe87f6a52ea)" style="fill: none; stroke: #0000ff; stroke-width: 2; stroke-linecap: square"/>
   </g>
   <g id="line2d_26">
    <path d="M 59.645767 148.80171 
L 60.32815 148.80171 
L 61.010533 145.333534 
L 61.692916 90.597958 
L 62.375299 135.605335 
L 63.057682 97.808486 
L 63.740065 121.494584 
L 64.422448 113.160433 
L 65.104831 114.228041 
L 65.787214 116.791541 
L 66.469597 112.495238 
L 67.151979 116.972029 
L 67.834362 117.480648 
L 68.516745 114.038295 
L 69.199128 118.529837 
L 69.881511 113.188251 
L 70.563894 122.30164 
L 71.246277 112.843276 
L 71.92866 117.346922 
L 72.611043 114.839856 
L 73.293426 114.756474 
L 73.975809 115.378416 
L 74.658192 112.283941 
L 75.340575 121.687417 
L 76.022958 115.31025 
L 76.705341 110.294616 
L 77.387724 122.087075 
L 78.070107 110.73786 
L 78.75249 111.631234 
L 79.434873 119.630489 
L 80.117255 105.775884 
L 80.799638 123.047201 
L 81.482021 110.515881 
L 82.164404 115.944905 
L 82.846787 114.345346 
L 83.52917 114.419532 
L 84.211553 115.558671 
L 84.893936 112.307658 
L 85.576319 114.373601 
L 86.258702 120.814513 
L 86.941085 111.299952 
L 87.623468 121.203748 
L 88.305851 110.210922 
L 88.988234 121.785411 
L 89.670617 107.95137 
L 90.353 120.07423 
L 91.035383 109.084852 
L 91.717766 116.834161 
L 92.400149 115.037343 
L 93.082531 112.757882 
L 93.764914 120.567082 
L 94.447297 111.535566 
L 95.12968 122.10352 
L 95.812063 107.719982 
L 96.494446 117.038312 
L 97.176829 115.125559 
L 97.859212 111.398593 
L 98.541595 119.172901 
L 99.223978 110.588988 
L 99.906361 119.114769 
L 100.588744 115.263573 
L 101.271127 116.145288 
L 101.95351 116.221454 
L 102.635893 115.871079 
L 103.318276 110.258343 
L 104.000659 119.190273 
L 104.683042 105.045809 
L 105.365425 127.512968 
L 106.047807 108.300061 
L 106.73019 120.694358 
L 107.412573 114.341754 
L 108.094956 115.107279 
L 108.777339 114.459356 
L 109.459722 117.102345 
L 110.142105 112.734801 
L 110.824488 112.979589 
L 111.506871 115.078879 
L 112.189254 117.768496 
L 112.871637 117.62547 
L 113.55402 111.412798 
L 114.236403 118.927136 
L 114.918786 113.146671 
L 115.601169 114.76634 
L 116.283552 111.745944 
L 116.965935 118.164455 
L 117.648318 113.836869 
L 118.330701 120.150741 
L 119.013083 109.627906 
L 119.695466 116.635815 
L 120.377849 113.32242 
L 121.060232 118.743907 
L 121.742615 108.899494 
L 122.424998 116.616906 
L 123.107381 107.978984 
L 123.789764 118.606887 
L 124.472147 109.941412 
L 125.15453 122.644275 
L 125.836913 113.473095 
L 126.519296 118.742336 
L 127.201679 107.158333 
L 127.884062 117.187438 
L 128.566445 232.960605 
L 129.248828 141.736052 
L 129.931211 211.888577 
L 130.613594 163.587115 
L 131.295977 201.48443 
L 131.97836 173.070955 
L 132.660742 187.99242 
L 133.343125 175.309087 
L 134.025508 188.895267 
L 134.707891 179.616902 
L 135.390274 184.658579 
L 136.072657 176.880395 
L 136.75504 183.868538 
L 137.437423 184.540637 
L 138.119806 179.804378 
L 138.802189 188.558103 
L 139.484572 178.166784 
L 140.166955 186.525343 
L 140.849338 180.71314 
L 141.531721 184.441043 
L 142.214104 181.497523 
L 142.896487 184.56361 
L 143.57887 181.993635 
L 144.261253 179.955052 
L 144.943636 181.513981 
L 145.626018 187.489982 
L 146.308401 180.158624 
L 146.990784 187.661344 
L 147.673167 179.523854 
L 149.037933 184.497394 
L 149.720316 179.064591 
L 150.402699 185.810654 
L 151.085082 183.458782 
L 151.767465 182.61553 
L 152.449848 185.808173 
L 153.132231 179.860936 
L 153.814614 182.281403 
L 154.496997 185.737479 
L 155.17938 176.819927 
L 155.861763 187.283131 
L 156.544146 178.01623 
L 157.226529 186.281878 
L 157.908912 178.680611 
L 158.591294 185.524951 
L 159.273677 178.776208 
L 159.95606 185.339786 
L 160.638443 177.800637 
L 161.320826 186.924093 
L 162.003209 177.4006 
L 162.685592 188.830935 
L 163.367975 180.566195 
L 164.050358 185.345103 
L 164.732741 178.025698 
L 165.415124 188.90926 
L 166.097507 175.301504 
L 166.77989 190.3649 
L 167.462273 178.513407 
L 168.144656 186.978566 
L 168.827039 180.225652 
L 169.509422 186.131836 
L 170.191805 177.890052 
L 170.874188 184.783495 
L 171.55657 181.940671 
L 172.238953 182.122464 
L 172.921336 183.941494 
L 173.603719 183.795644 
L 174.286102 181.617982 
L 174.968485 187.025321 
L 175.650868 178.885035 
L 176.333251 188.608414 
L 177.015634 181.663842 
L 177.698017 184.528337 
L 178.3804 181.103432 
L 179.062783 186.320313 
L 179.745166 179.613995 
L 180.427549 187.874397 
L 181.109932 173.581169 
L 181.792315 187.456238 
L 182.474698 179.481584 
L 183.157081 181.757487 
L 183.839464 180.977119 
L 184.521846 181.332469 
L 185.204229 181.405561 
L 185.886612 183.01751 
L 186.568995 179.980946 
L 187.251378 187.189571 
L 187.933761 178.196983 
L 188.616144 185.934877 
L 189.298527 178.109907 
L 189.98091 186.737595 
L 190.663293 181.048367 
L 192.028059 180.113962 
L 192.710442 183.979025 
L 193.392825 183.920674 
L 194.075208 182.738684 
L 194.757591 186.880687 
L 195.439974 181.374649 
L 196.122357 178.143818 
L 196.80474 63.229674 
L 197.487122 155.685106 
L 198.169505 84.750682 
L 198.851888 138.552365 
L 199.534271 94.417094 
L 200.216654 132.412068 
L 200.899037 99.145903 
L 201.58142 127.030821 
L 202.263803 101.591062 
L 202.946186 124.219829 
L 203.628569 105.239827 
L 204.310952 122.78043 
L 204.993335 104.693503 
L 205.675718 119.343989 
L 206.358101 106.962423 
L 207.040484 123.525143 
L 207.722867 109.806801 
L 208.40525 123.286491 
L 209.087633 107.605352 
L 209.770016 121.906131 
L 210.452398 113.042802 
L 211.134781 114.80814 
L 211.817164 114.337148 
L 212.499547 115.28359 
L 213.18193 114.828114 
L 213.864313 115.347723 
L 214.546696 113.109804 
L 215.229079 112.816755 
L 215.911462 117.09401 
L 216.593845 110.170762 
L 217.276228 124.220089 
L 217.958611 106.319945 
L 218.640994 123.074435 
L 219.323377 111.789211 
L 220.00576 116.772908 
L 220.688143 115.287685 
L 221.370526 118.087085 
L 222.052909 110.021361 
L 222.735292 120.140678 
L 223.417674 111.91089 
L 224.100057 120.840505 
L 224.78244 114.748985 
L 225.464823 114.515428 
L 226.147206 117.75523 
L 226.829589 110.28783 
L 227.511972 117.405808 
L 228.194355 113.747732 
L 228.876738 117.408635 
L 229.559121 111.601328 
L 230.241504 123.253719 
L 230.923887 113.625657 
L 231.60627 114.267615 
L 232.288653 117.409739 
L 232.971036 113.089747 
L 233.653419 115.716155 
L 234.335802 114.155328 
L 235.018185 116.603765 
L 235.700568 110.168413 
L 236.382951 120.617669 
L 237.065333 109.102615 
L 237.747716 126.661302 
L 238.430099 101.796483 
L 239.112482 123.109688 
L 239.794865 101.276071 
L 240.477248 126.961001 
L 241.159631 104.359462 
L 241.842014 122.582913 
L 242.524397 111.419832 
L 243.20678 114.363586 
L 243.889163 114.527391 
L 244.571546 118.598187 
L 245.253929 110.534682 
L 245.936312 121.097521 
L 246.618695 108.923939 
L 247.301078 119.493955 
L 247.983461 105.048132 
L 248.665844 124.462022 
L 249.348227 104.363012 
L 250.030609 126.048756 
L 250.712992 110.743454 
L 251.395375 120.779982 
L 252.077758 112.90594 
L 252.760141 116.627296 
L 253.442524 111.730095 
L 254.124907 115.182898 
L 254.80729 111.882575 
L 255.489673 118.755293 
L 256.172056 110.79186 
L 256.854439 116.641129 
L 257.536822 111.967888 
L 258.219205 119.836233 
L 258.901588 110.310166 
L 259.583971 120.12507 
L 260.266354 109.828196 
L 260.948737 118.902754 
L 261.63112 115.405759 
L 262.313503 116.35978 
L 262.995885 114.966967 
L 263.678268 116.414464 
L 264.360651 113.673905 
L 265.043034 235.152909 
L 265.725417 140.218854 
L 266.4078 214.623018 
L 267.090183 160.96643 
L 267.772566 203.968948 
L 268.454949 169.391903 
L 269.137332 192.363232 
L 269.819715 170.64819 
L 270.502098 193.399474 
L 271.184481 174.517784 
L 271.866864 188.327781 
L 272.549247 181.661941 
L 273.23163 185.315939 
L 273.914013 177.617061 
L 274.596396 178.227397 
L 275.278779 186.880524 
L 275.961161 182.515944 
L 276.643544 180.773328 
L 277.325927 183.020576 
L 278.00831 188.259531 
L 278.690693 178.421429 
L 279.373076 183.79006 
L 280.055459 178.587182 
L 280.737842 186.779379 
L 281.420225 177.155365 
L 282.102608 188.58405 
L 282.784991 177.221434 
L 283.467374 186.520627 
L 284.149757 182.335788 
L 284.83214 185.856648 
L 285.514523 182.024675 
L 286.196906 186.787343 
L 286.879289 176.437003 
L 287.561672 189.129503 
L 288.244055 176.452982 
L 288.926437 192.27296 
L 289.60882 168.342898 
L 290.291203 191.262549 
L 290.973586 173.052972 
L 291.655969 190.172201 
L 292.338352 176.18355 
L 293.020735 187.521378 
L 293.703118 179.872362 
L 294.385501 188.902669 
L 295.067884 176.524731 
L 295.750267 187.04836 
L 296.43265 182.160872 
L 297.115033 186.24154 
L 297.797416 179.140209 
L 298.479799 184.167502 
L 299.162182 179.656375 
L 299.844565 185.347869 
L 300.526948 178.740812 
L 301.209331 184.341733 
L 301.891713 185.786809 
L 302.574096 182.87479 
L 303.256479 180.946971 
L 303.938862 183.106694 
L 304.621245 186.601514 
L 305.303628 176.516417 
L 305.986011 185.384685 
L 306.668394 178.789405 
L 307.350777 180.022633 
L 308.03316 185.587372 
L 308.715543 179.165935 
L 309.397926 184.720905 
L 310.080309 183.910137 
L 310.762692 178.572384 
L 311.445075 185.146921 
L 312.127458 184.081302 
L 312.809841 181.228146 
L 313.492224 181.492458 
L 314.174607 182.136352 
L 314.856989 183.534562 
L 315.539372 175.279826 
L 316.221755 187.386515 
L 316.904138 178.912328 
L 317.586521 186.141787 
L 318.268904 182.052442 
L 318.951287 182.208472 
L 319.63367 183.140625 
L 320.316053 183.215696 
L 320.998436 183.916847 
L 321.680819 182.210777 
L 322.363202 184.94031 
L 323.045585 182.631986 
L 323.727968 178.815499 
L 324.410351 181.77666 
L 325.092734 180.889466 
L 325.775117 186.568427 
L 326.4575 178.280169 
L 327.139883 188.586154 
L 327.822265 175.900214 
L 328.504648 189.73933 
L 329.187031 173.23928 
L 329.869414 187.347705 
L 330.551797 180.856152 
L 331.23418 190.472681 
L 331.916563 176.422731 
L 332.598946 187.937466 
L 333.281329 52.411091 
L 333.963712 164.821075 
L 334.646095 71.166115 
L 335.328478 150.525652 
L 336.010861 81.004042 
L 336.693244 140.186894 
L 337.375627 92.450374 
L 338.05801 130.46636 
L 338.740393 102.54408 
L 339.422776 129.024927 
L 340.105159 106.810532 
L 340.787542 122.0719 
L 341.469924 105.293879 
L 342.152307 122.813753 
L 342.83469 106.198855 
L 343.517073 123.162341 
L 344.199456 109.299662 
L 344.881839 124.389899 
L 345.564222 108.412733 
L 346.246605 119.745666 
L 346.928988 110.194049 
L 347.611371 117.923197 
L 348.293754 110.323414 
L 348.976137 113.744686 
L 349.65852 120.282432 
L 350.340903 114.223124 
L 351.023286 118.132185 
L 351.705669 114.55049 
L 352.388052 116.035068 
L 353.070435 118.27517 
L 353.752818 116.017301 
L 354.4352 112.487499 
L 355.117583 116.53157 
L 355.799966 117.976211 
L 356.482349 112.445451 
L 357.164732 117.308958 
L 357.847115 111.692659 
L 358.529498 118.612644 
L 359.211881 113.067595 
L 359.894264 112.255496 
L 360.576647 114.270901 
L 361.25903 118.005047 
L 361.941413 111.202332 
L 362.623796 117.605941 
L 363.306179 110.474506 
L 363.988562 115.854246 
L 364.670945 116.807044 
L 365.353328 113.820837 
L 366.035711 120.651315 
L 366.718094 111.41906 
L 367.400476 117.875376 
L 368.082859 113.218962 
L 368.765242 117.995292 
L 369.447625 115.373889 
L 370.130008 113.540185 
L 370.812391 117.104132 
L 371.494774 110.247194 
L 372.177157 124.864779 
L 372.85954 107.956773 
L 373.541923 125.662985 
L 374.224306 107.281664 
L 374.906689 116.990667 
L 375.589072 113.516466 
L 376.271455 114.986193 
L 376.953838 114.319516 
L 377.636221 114.826231 
L 378.318604 117.331754 
L 379.000987 113.55807 
L 379.68337 113.523653 
L 380.365752 119.442611 
L 381.048135 112.231397 
L 381.730518 117.399439 
L 382.412901 116.470139 
L 383.095284 116.61854 
L 383.777667 115.100923 
L 384.46005 118.522887 
L 385.142433 112.483169 
L 385.824816 113.714292 
L 386.507199 112.106958 
L 387.189582 120.212497 
L 387.871965 115.5678 
L 388.554348 116.620052 
L 389.236731 114.675923 
L 389.919114 115.797562 
L 390.601497 114.344801 
L 391.28388 116.905322 
L 391.966263 116.133865 
L 392.648646 112.612439 
L 393.331028 117.95675 
L 394.013411 116.446418 
L 394.695794 112.508023 
L 395.378177 117.62719 
L 396.06056 114.826043 
L 396.742943 113.328398 
L 397.425326 117.404513 
L 398.107709 113.487914 
L 398.790092 116.55117 
L 399.472475 114.142521 
L 400.154858 110.163712 
L 400.154858 110.163712 
" clip-path="url(#pe87f6a52ea)" style="fill: none; stroke-dasharray: 5.55,2.4; stroke-dashoffset: 0; stroke: #ff0000; stroke-width: 1.5"/>
   </g>
   <g id="patch_3">
    <path d="M 42.620313 244.29 
L 42.620313 43.274 
" style="fill: none; stroke: #000000; stroke-width: 0.8; stroke-linejoin: miter; stroke-linecap: square"/>
   </g>
   <g id="patch_4">
    <path d="M 417.180313 244.29 
L 417.180313 43.274 
" style="fill: none; stroke: #000000; stroke-width: 0.8; stroke-linejoin: miter; stroke-linecap: square"/>
   </g>
   <g id="patch_5">
    <path d="M 42.620313 244.29 
L 417.180312 244.29 
" style="fill: none; stroke: #000000; stroke-width: 0.8; stroke-linejoin: miter; stroke-linecap: square"/>
   </g>
   <g id="patch_6">
    <path d="M 42.620313 43.274 
L 417.180312 43.274 
" style="fill: none; stroke: #000000; stroke-width: 0.8; stroke-linejoin: miter; stroke-linecap: square"/>
   </g>
   <g id="text_15">
    <!-- Tracking Performance -->
    <g transform="translate(143.366563 19.3575) scale(0.16 -0.16)">
     <defs>
      <path id="DejaVuSans-54" d="M -19 4666 
L 3928 4666 
L 3928 4134 
L 2272 4134 
L 2272 0 
L 1638 0 
L 1638 4134 
L -19 4134 
L -19 4666 
z
" transform="scale(0.015625)"/>
      <path id="DejaVuSans-72" d="M 2631 2963 
Q 2534 3019 2420 3045 
Q 2306 3072 2169 3072 
Q 1681 3072 1420 2755 
Q 1159 2438 1159 1844 
L 1159 0 
L 581 0 
L 581 3500 
L 1159 3500 
L 1159 2956 
Q 1341 3275 1631 3429 
Q 1922 3584 2338 3584 
Q 2397 3584 2469 3576 
Q 2541 3569 2628 3553 
L 2631 2963 
z
" transform="scale(0.015625)"/>
      <path id="DejaVuSans-63" d="M 3122 3366 
L 3122 2828 
Q 2878 2963 2633 3030 
Q 2388 3097 2138 3097 
Q 1578 3097 1268 2742 
Q 959 2388 959 1747 
Q 959 1106 1268 751 
Q 1578 397 2138 397 
Q 2388 397 2633 464 
Q 2878 531 3122 666 
L 3122 134 
Q 2881 22 2623 -34 
Q 2366 -91 2075 -91 
Q 1284 -91 818 406 
Q 353 903 353 1747 
Q 353 2603 823 3093 
Q 1294 3584 2113 3584 
Q 2378 3584 2631 3529 
Q 2884 3475 3122 3366 
z
" transform="scale(0.015625)"/>
      <path id="DejaVuSans-6b" d="M 581 4863 
L 1159 4863 
L 1159 1991 
L 2875 3500 
L 3609 3500 
L 1753 1863 
L 3688 0 
L 2938 0 
L 1159 1709 
L 1159 0 
L 581 0 
L 581 4863 
z
" transform="scale(0.015625)"/>
      <path id="DejaVuSans-50" d="M 1259 4147 
L 1259 2394 
L 2053 2394 
Q 2494 2394 2734 2622 
Q 2975 2850 2975 3272 
Q 2975 3691 2734 3919 
Q 2494 4147 2053 4147 
L 1259 4147 
z
M 628 4666 
L 2053 4666 
Q 2838 4666 3239 4311 
Q 3641 3956 3641 3272 
Q 3641 2581 3239 2228 
Q 2838 1875 2053 1875 
L 1259 1875 
L 1259 0 
L 628 0 
L 628 4666 
z
" transform="scale(0.015625)"/>
      <path id="DejaVuSans-66" d="M 2375 4863 
L 2375 4384 
L 1825 4384 
Q 1516 4384 1395 4259 
Q 1275 4134 1275 3809 
L 1275 3500 
L 2222 3500 
L 2222 3053 
L 1275 3053 
L 1275 0 
L 697 0 
L 697 3053 
L 147 3053 
L 147 3500 
L 697 3500 
L 697 3744 
Q 697 4328 969 4595 
Q 1241 4863 1831 4863 
L 2375 4863 
z
" transform="scale(0.015625)"/>
      <path id="DejaVuSans-6f" d="M 1959 3097 
Q 1497 3097 1228 2736 
Q 959 2375 959 1747 
Q 959 1119 1226 758 
Q 1494 397 1959 397 
Q 2419 397 2687 759 
Q 2956 1122 2956 1747 
Q 2956 2369 2687 2733 
Q 2419 3097 1959 3097 
z
M 1959 3584 
Q 2709 3584 3137 3096 
Q 3566 2609 3566 1747 
Q 3566 888 3137 398 
Q 2709 -91 1959 -91 
Q 1206 -91 779 398 
Q 353 888 353 1747 
Q 353 2609 779 3096 
Q 1206 3584 1959 3584 
z
" transform="scale(0.015625)"/>
     </defs>
     <use xlink:href="#DejaVuSans-54"/>
     <use xlink:href="#DejaVuSans-72" transform="translate(46.333984 0)"/>
     <use xlink:href="#DejaVuSans-61" transform="translate(87.447266 0)"/>
     <use xlink:href="#DejaVuSans-63" transform="translate(148.726562 0)"/>
     <use xlink:href="#DejaVuSans-6b" transform="translate(203.707031 0)"/>
     <use xlink:href="#DejaVuSans-69" transform="translate(261.617188 0)"/>
     <use xlink:href="#DejaVuSans-6e" transform="translate(289.400391 0)"/>
     <use xlink:href="#DejaVuSans-67" transform="translate(352.779297 0)"/>
     <use xlink:href="#DejaVuSans-20" transform="translate(416.255859 0)"/>
     <use xlink:href="#DejaVuSans-50" transform="translate(448.042969 0)"/>
     <use xlink:href="#DejaVuSans-65" transform="translate(504.720703 0)"/>
     <use xlink:href="#DejaVuSans-72" transform="translate(566.244141 0)"/>
     <use xlink:href="#DejaVuSans-66" transform="translate(607.357422 0)"/>
     <use xlink:href="#DejaVuSans-6f" transform="translate(642.5625 0)"/>
     <use xlink:href="#DejaVuSans-72" transform="translate(703.744141 0)"/>
     <use xlink:href="#DejaVuSans-6d" transform="translate(743.107422 0)"/>
     <use xlink:href="#DejaVuSans-61" transform="translate(840.519531 0)"/>
     <use xlink:href="#DejaVuSans-6e" transform="translate(901.798828 0)"/>
     <use xlink:href="#DejaVuSans-63" transform="translate(965.177734 0)"/>
     <use xlink:href="#DejaVuSans-65" transform="translate(1020.158203 0)"/>
    </g>
    <!-- Rel. MAE: 81.79%, RMSE: 0.3493, R²: 0.8732 -->
    <g transform="translate(51.309063 37.274) scale(0.16 -0.16)">
     <defs>
      <path id="DejaVuSans-52" d="M 2841 2188 
Q 3044 2119 3236 1894 
Q 3428 1669 3622 1275 
L 4263 0 
L 3584 0 
L 2988 1197 
Q 2756 1666 2539 1819 
Q 2322 1972 1947 1972 
L 1259 1972 
L 1259 0 
L 628 0 
L 628 4666 
L 2053 4666 
Q 2853 4666 3247 4331 
Q 3641 3997 3641 3322 
Q 3641 2881 3436 2590 
Q 3231 2300 2841 2188 
z
M 1259 4147 
L 1259 2491 
L 2053 2491 
Q 2509 2491 2742 2702 
Q 2975 2913 2975 3322 
Q 2975 3731 2742 3939 
Q 2509 4147 2053 4147 
L 1259 4147 
z
" transform="scale(0.015625)"/>
      <path id="DejaVuSans-2e" d="M 684 794 
L 1344 794 
L 1344 0 
L 684 0 
L 684 794 
z
" transform="scale(0.015625)"/>
      <path id="DejaVuSans-4d" d="M 628 4666 
L 1569 4666 
L 2759 1491 
L 3956 4666 
L 4897 4666 
L 4897 0 
L 4281 0 
L 4281 4097 
L 3078 897 
L 2444 897 
L 1241 4097 
L 1241 0 
L 628 0 
L 628 4666 
z
" transform="scale(0.015625)"/>
      <path id="DejaVuSans-41" d="M 2188 4044 
L 1331 1722 
L 3047 1722 
L 2188 4044 
z
M 1831 4666 
L 2547 4666 
L 4325 0 
L 3669 0 
L 3244 1197 
L 1141 1197 
L 716 0 
L 50 0 
L 1831 4666 
z
" transform="scale(0.015625)"/>
      <path id="DejaVuSans-45" d="M 628 4666 
L 3578 4666 
L 3578 4134 
L 1259 4134 
L 1259 2753 
L 3481 2753 
L 3481 2222 
L 1259 2222 
L 1259 531 
L 3634 531 
L 3634 0 
L 628 0 
L 628 4666 
z
" transform="scale(0.015625)"/>
      <path id="DejaVuSans-3a" d="M 750 794 
L 1409 794 
L 1409 0 
L 750 0 
L 750 794 
z
M 750 3309 
L 1409 3309 
L 1409 2516 
L 750 2516 
L 750 3309 
z
" transform="scale(0.015625)"/>
      <path id="DejaVuSans-38" d="M 2034 2216 
Q 1584 2216 1326 1975 
Q 1069 1734 1069 1313 
Q 1069 891 1326 650 
Q 1584 409 2034 409 
Q 2484 409 2743 651 
Q 3003 894 3003 1313 
Q 3003 1734 2745 1975 
Q 2488 2216 2034 2216 
z
M 1403 2484 
Q 997 2584 770 2862 
Q 544 3141 544 3541 
Q 544 4100 942 4425 
Q 1341 4750 2034 4750 
Q 2731 4750 3128 4425 
Q 3525 4100 3525 3541 
Q 3525 3141 3298 2862 
Q 3072 2584 2669 2484 
Q 3125 2378 3379 2068 
Q 3634 1759 3634 1313 
Q 3634 634 3220 271 
Q 2806 -91 2034 -91 
Q 1263 -91 848 271 
Q 434 634 434 1313 
Q 434 1759 690 2068 
Q 947 2378 1403 2484 
z
M 1172 3481 
Q 1172 3119 1398 2916 
Q 1625 2713 2034 2713 
Q 2441 2713 2670 2916 
Q 2900 3119 2900 3481 
Q 2900 3844 2670 4047 
Q 2441 4250 2034 4250 
Q 1625 4250 1398 4047 
Q 1172 3844 1172 3481 
z
" transform="scale(0.015625)"/>
      <path id="DejaVuSans-37" d="M 525 4666 
L 3525 4666 
L 3525 4397 
L 1831 0 
L 1172 0 
L 2766 4134 
L 525 4134 
L 525 4666 
z
" transform="scale(0.015625)"/>
      <path id="DejaVuSans-39" d="M 703 97 
L 703 672 
Q 941 559 1184 500 
Q 1428 441 1663 441 
Q 2288 441 2617 861 
Q 2947 1281 2994 2138 
Q 2813 1869 2534 1725 
Q 2256 1581 1919 1581 
Q 1219 1581 811 2004 
Q 403 2428 403 3163 
Q 403 3881 828 4315 
Q 1253 4750 1959 4750 
Q 2769 4750 3195 4129 
Q 3622 3509 3622 2328 
Q 3622 1225 3098 567 
Q 2575 -91 1691 -91 
Q 1453 -91 1209 -44 
Q 966 3 703 97 
z
M 1959 2075 
Q 2384 2075 2632 2365 
Q 2881 2656 2881 3163 
Q 2881 3666 2632 3958 
Q 2384 4250 1959 4250 
Q 1534 4250 1286 3958 
Q 1038 3666 1038 3163 
Q 1038 2656 1286 2365 
Q 1534 2075 1959 2075 
z
" transform="scale(0.015625)"/>
      <path id="DejaVuSans-25" d="M 4653 2053 
Q 4381 2053 4226 1822 
Q 4072 1591 4072 1178 
Q 4072 772 4226 539 
Q 4381 306 4653 306 
Q 4919 306 5073 539 
Q 5228 772 5228 1178 
Q 5228 1588 5073 1820 
Q 4919 2053 4653 2053 
z
M 4653 2450 
Q 5147 2450 5437 2106 
Q 5728 1763 5728 1178 
Q 5728 594 5436 251 
Q 5144 -91 4653 -91 
Q 4153 -91 3862 251 
Q 3572 594 3572 1178 
Q 3572 1766 3864 2108 
Q 4156 2450 4653 2450 
z
M 1428 4353 
Q 1159 4353 1004 4120 
Q 850 3888 850 3481 
Q 850 3069 1003 2837 
Q 1156 2606 1428 2606 
Q 1700 2606 1854 2837 
Q 2009 3069 2009 3481 
Q 2009 3884 1853 4118 
Q 1697 4353 1428 4353 
z
M 4250 4750 
L 4750 4750 
L 1831 -91 
L 1331 -91 
L 4250 4750 
z
M 1428 4750 
Q 1922 4750 2215 4408 
Q 2509 4066 2509 3481 
Q 2509 2891 2217 2550 
Q 1925 2209 1428 2209 
Q 931 2209 642 2551 
Q 353 2894 353 3481 
Q 353 4063 643 4406 
Q 934 4750 1428 4750 
z
" transform="scale(0.015625)"/>
      <path id="DejaVuSans-2c" d="M 750 794 
L 1409 794 
L 1409 256 
L 897 -744 
L 494 -744 
L 750 256 
L 750 794 
z
" transform="scale(0.015625)"/>
      <path id="DejaVuSans-b2" d="M 838 2444 
L 2163 2444 
L 2163 2088 
L 294 2088 
L 294 2431 
Q 400 2528 597 2703 
Q 1672 3656 1672 3950 
Q 1672 4156 1509 4282 
Q 1347 4409 1081 4409 
Q 919 4409 728 4354 
Q 538 4300 313 4191 
L 313 4575 
Q 553 4663 761 4706 
Q 969 4750 1147 4750 
Q 1600 4750 1872 4544 
Q 2144 4338 2144 4000 
Q 2144 3566 1109 2678 
Q 934 2528 838 2444 
z
" transform="scale(0.015625)"/>
     </defs>
     <use xlink:href="#DejaVuSans-52"/>
     <use xlink:href="#DejaVuSans-65" transform="translate(64.982422 0)"/>
     <use xlink:href="#DejaVuSans-6c" transform="translate(126.505859 0)"/>
     <use xlink:href="#DejaVuSans-2e" transform="translate(154.289062 0)"/>
     <use xlink:href="#DejaVuSans-20" transform="translate(186.076172 0)"/>
     <use xlink:href="#DejaVuSans-4d" transform="translate(217.863281 0)"/>
     <use xlink:href="#DejaVuSans-41" transform="translate(304.142578 0)"/>
     <use xlink:href="#DejaVuSans-45" transform="translate(372.550781 0)"/>
     <use xlink:href="#DejaVuSans-3a" transform="translate(435.734375 0)"/>
     <use xlink:href="#DejaVuSans-20" transform="translate(469.425781 0)"/>
     <use xlink:href="#DejaVuSans-38" transform="translate(501.212891 0)"/>
     <use xlink:href="#DejaVuSans-31" transform="translate(564.835938 0)"/>
     <use xlink:href="#DejaVuSans-2e" transform="translate(628.458984 0)"/>
     <use xlink:href="#DejaVuSans-37" transform="translate(660.246094 0)"/>
     <use xlink:href="#DejaVuSans-39" transform="translate(723.869141 0)"/>
     <use xlink:href="#DejaVuSans-25" transform="translate(787.492188 0)"/>
     <use xlink:href="#DejaVuSans-2c" transform="translate(882.511719 0)"/>
     <use xlink:href="#DejaVuSans-20" transform="translate(914.298828 0)"/>
     <use xlink:href="#DejaVuSans-52" transform="translate(946.085938 0)"/>
     <use xlink:href="#DejaVuSans-4d" transform="translate(1015.568359 0)"/>
     <use xlink:href="#DejaVuSans-53" transform="translate(1101.847656 0)"/>
     <use xlink:href="#DejaVuSans-45" transform="translate(1165.324219 0)"/>
     <use xlink:href="#DejaVuSans-3a" transform="translate(1228.507812 0)"/>
     <use xlink:href="#DejaVuSans-20" transform="translate(1262.199219 0)"/>
     <use xlink:href="#DejaVuSans-30" transform="translate(1293.986328 0)"/>
     <use xlink:href="#DejaVuSans-2e" transform="translate(1357.609375 0)"/>
     <use xlink:href="#DejaVuSans-33" transform="translate(1389.396484 0)"/>
     <use xlink:href="#DejaVuSans-34" transform="translate(1453.019531 0)"/>
     <use xlink:href="#DejaVuSans-39" transform="translate(1516.642578 0)"/>
     <use xlink:href="#DejaVuSans-33" transform="translate(1580.265625 0)"/>
     <use xlink:href="#DejaVuSans-2c" transform="translate(1643.888672 0)"/>
     <use xlink:href="#DejaVuSans-20" transform="translate(1675.675781 0)"/>
     <use xlink:href="#DejaVuSans-52" transform="translate(1707.462891 0)"/>
     <use xlink:href="#DejaVuSans-b2" transform="translate(1776.945312 0)"/>
     <use xlink:href="#DejaVuSans-3a" transform="translate(1817.033203 0)"/>
     <use xlink:href="#DejaVuSans-20" transform="translate(1850.724609 0)"/>
     <use xlink:href="#DejaVuSans-30" transform="translate(1882.511719 0)"/>
     <use xlink:href="#DejaVuSans-2e" transform="translate(1946.134766 0)"/>
     <use xlink:href="#DejaVuSans-38" transform="translate(1977.921875 0)"/>
     <use xlink:href="#DejaVuSans-37" transform="translate(2041.544922 0)"/>
     <use xlink:href="#DejaVuSans-33" transform="translate(2105.167969 0)"/>
     <use xlink:href="#DejaVuSans-32" transform="translate(2168.791016 0)"/>
    </g>
   </g>
   <g id="legend_1">
    <g id="patch_7">
     <path d="M 52.420313 237.29 
L 202.506875 237.29 
Q 205.306875 237.29 205.306875 234.49 
L 205.306875 194.79125 
Q 205.306875 191.99125 202.506875 191.99125 
L 52.420313 191.99125 
Q 49.620313 191.99125 49.620313 194.79125 
L 49.620313 234.49 
Q 49.620313 237.29 52.420313 237.29 
z
" style="fill: #ffffff; opacity: 0.8; stroke: #cccccc; stroke-linejoin: miter"/>
    </g>
    <g id="line2d_27">
     <path d="M 55.220313 203.329062 
L 69.220313 203.329062 
L 83.220313 203.329062 
" style="fill: none; stroke: #0000ff; stroke-width: 2; stroke-linecap: square"/>
    </g>
    <g id="text_16">
     <!-- Reference -->
     <g transform="translate(94.420313 208.229062) scale(0.14 -0.14)">
      <use xlink:href="#DejaVuSans-52"/>
      <use xlink:href="#DejaVuSans-65" transform="translate(64.982422 0)"/>
      <use xlink:href="#DejaVuSans-66" transform="translate(126.505859 0)"/>
      <use xlink:href="#DejaVuSans-65" transform="translate(161.710938 0)"/>
      <use xlink:href="#DejaVuSans-72" transform="translate(223.234375 0)"/>
      <use xlink:href="#DejaVuSans-65" transform="translate(262.097656 0)"/>
      <use xlink:href="#DejaVuSans-6e" transform="translate(323.621094 0)"/>
      <use xlink:href="#DejaVuSans-63" transform="translate(387 0)"/>
      <use xlink:href="#DejaVuSans-65" transform="translate(441.980469 0)"/>
     </g>
    </g>
    <g id="line2d_28">
     <path d="M 55.220313 223.878437 
L 69.220313 223.878437 
L 83.220313 223.878437 
" style="fill: none; stroke-dasharray: 5.55,2.4; stroke-dashoffset: 0; stroke: #ff0000; stroke-width: 1.5"/>
    </g>
    <g id="text_17">
     <!-- System Output -->
     <g transform="translate(94.420313 228.778437) scale(0.14 -0.14)">
      <defs>
       <path id="DejaVuSans-79" d="M 2059 -325 
Q 1816 -950 1584 -1140 
Q 1353 -1331 966 -1331 
L 506 -1331 
L 506 -850 
L 844 -850 
Q 1081 -850 1212 -737 
Q 1344 -625 1503 -206 
L 1606 56 
L 191 3500 
L 800 3500 
L 1894 763 
L 2988 3500 
L 3597 3500 
L 2059 -325 
z
" transform="scale(0.015625)"/>
       <path id="DejaVuSans-74" d="M 1172 4494 
L 1172 3500 
L 2356 3500 
L 2356 3053 
L 1172 3053 
L 1172 1153 
Q 1172 725 1289 603 
Q 1406 481 1766 481 
L 2356 481 
L 2356 0 
L 1766 0 
Q 1100 0 847 248 
Q 594 497 594 1153 
L 594 3053 
L 172 3053 
L 172 3500 
L 594 3500 
L 594 4494 
L 1172 4494 
z
" transform="scale(0.015625)"/>
       <path id="DejaVuSans-4f" d="M 2522 4238 
Q 1834 4238 1429 3725 
Q 1025 3213 1025 2328 
Q 1025 1447 1429 934 
Q 1834 422 2522 422 
Q 3209 422 3611 934 
Q 4013 1447 4013 2328 
Q 4013 3213 3611 3725 
Q 3209 4238 2522 4238 
z
M 2522 4750 
Q 3503 4750 4090 4092 
Q 4678 3434 4678 2328 
Q 4678 1225 4090 567 
Q 3503 -91 2522 -91 
Q 1538 -91 948 565 
Q 359 1222 359 2328 
Q 359 3434 948 4092 
Q 1538 4750 2522 4750 
z
" transform="scale(0.015625)"/>
      </defs>
      <use xlink:href="#DejaVuSans-53"/>
      <use xlink:href="#DejaVuSans-79" transform="translate(63.476562 0)"/>
      <use xlink:href="#DejaVuSans-73" transform="translate(122.65625 0)"/>
      <use xlink:href="#DejaVuSans-74" transform="translate(174.755859 0)"/>
      <use xlink:href="#DejaVuSans-65" transform="translate(213.964844 0)"/>
      <use xlink:href="#DejaVuSans-6d" transform="translate(275.488281 0)"/>
      <use xlink:href="#DejaVuSans-20" transform="translate(372.900391 0)"/>
      <use xlink:href="#DejaVuSans-4f" transform="translate(404.6875 0)"/>
      <use xlink:href="#DejaVuSans-75" transform="translate(483.398438 0)"/>
      <use xlink:href="#DejaVuSans-74" transform="translate(546.777344 0)"/>
      <use xlink:href="#DejaVuSans-70" transform="translate(585.986328 0)"/>
      <use xlink:href="#DejaVuSans-75" transform="translate(649.462891 0)"/>
      <use xlink:href="#DejaVuSans-74" transform="translate(712.841797 0)"/>
     </g>
    </g>
   </g>
  </g>
 </g>
 <defs>
  <clipPath id="pe87f6a52ea">
   <rect x="42.620313" y="43.274" width="374.56" height="201.016"/>
  </clipPath>
 </defs>
</svg>
